font.ufo
<glyph name="exclam" format="1">
  <advance width="244"/>
  <unicode hex="0021"/>
  <outline>
    <contour>
      <point x="47" y="53" type="curve" smooth="yes"/>
      <point x="47" y="95"/>
      <point x="80" y="129"/>
      <point x="122" y="129" type="curve" smooth="yes"/>
      <point x="164" y="129"/>
      <point x="197" y="95"/>
      <point x="197" y="53" type="curve" smooth="yes"/>
      <point x="197" y="11"/>
      <point x="164" y="-22"/>
      <point x="122" y="-22" type="curve" smooth="yes"/>
      <point x="80" y="-22"/>
      <point x="47" y="11"/>
    </contour>
    <contour>
      <point x="59" y="166" type="line"/>
      <point x="59" y="700" type="line"/>
      <point x="188" y="700" type="line"/>
      <point x="188" y="166" type="line"/>
    </contour>
  </outline>
</glyph>
<glyph name="numbersign" format="1">
  <advance width="753"/>
  <unicode hex="0023"/>
  <outline>
    <contour>
      <point x="28" y="176" type="line"/>
      <point x="53" y="297" type="line"/>
      <point x="190" y="297" type="line"/>
      <point x="208" y="404" type="line"/>
      <point x="62" y="404" type="line"/>
      <point x="84" y="525" type="line"/>
      <point x="230" y="525" type="line"/>
      <point x="257" y="682" type="line"/>
      <point x="378" y="682" type="line"/>
      <point x="350" y="524" type="line"/>
      <point x="456" y="524" type="line"/>
      <point x="483" y="682" type="line"/>
      <point x="604" y="682" type="line"/>
      <point x="576" y="524" type="line"/>
      <point x="714" y="524" type="line"/>
      <point x="695" y="403" type="line"/>
      <point x="555" y="404" type="line"/>
      <point x="536" y="296" type="line"/>
      <point x="679" y="296" type="line"/>
      <point x="661" y="175" type="line"/>
      <point x="515" y="176" type="line"/>
      <point x="488" y="22" type="line"/>
      <point x="368" y="22" type="line"/>
      <point x="394" y="176" type="line"/>
      <point x="289" y="176" type="line"/>
      <point x="262" y="22" type="line"/>
      <point x="141" y="22" type="line"/>
      <point x="168" y="176" type="line"/>
    </contour>
    <contour>
      <point x="310" y="297" type="line"/>
      <point x="416" y="296" type="line"/>
      <point x="434" y="404" type="line"/>
      <point x="329" y="404" type="line"/>
    </contour>
  </outline>
</glyph>
<glyph name="dollar" format="1">
  <advance width="481"/>
  <unicode hex="0024"/>
  <outline>
    <contour>
      <point x="20" y="158" type="curve"/>
      <point x="147" y="203" type="line"/>
      <point x="149" y="147"/>
      <point x="203" y="127"/>
      <point x="203" y="127" type="curve"/>
      <point x="203" y="-47" type="line"/>
      <point x="132" y="-47" type="line"/>
      <point x="132" y="13" type="line"/>
      <point x="63" y="45"/>
      <point x="21" y="116"/>
    </contour>
    <contour>
      <point x="28" y="508" type="curve" smooth="yes"/>
      <point x="28" y="599"/>
      <point x="81" y="652"/>
      <point x="132" y="679" type="curve"/>
      <point x="132" y="750" type="line"/>
      <point x="203" y="750" type="line"/>
      <point x="203" y="568" type="line"/>
      <point x="182" y="562"/>
      <point x="162" y="537"/>
      <point x="162" y="513" type="curve" smooth="yes"/>
      <point x="162" y="486"/>
      <point x="179" y="469"/>
      <point x="203" y="454" type="curve"/>
      <point x="203" y="302" type="line"/>
      <point x="184" y="309"/>
      <point x="166" y="316"/>
      <point x="151" y="323" type="curve" smooth="yes"/>
      <point x="80" y="357"/>
      <point x="28" y="403"/>
    </contour>
    <contour>
      <point x="258" y="-47" type="line"/>
      <point x="258" y="127" type="line"/>
      <point x="282" y="130"/>
      <point x="320" y="150"/>
      <point x="320" y="203" type="curve" smooth="yes"/>
      <point x="320" y="241"/>
      <point x="293" y="263"/>
      <point x="258" y="280" type="curve"/>
      <point x="258" y="428" type="line"/>
      <point x="284" y="418"/>
      <point x="310" y="407"/>
      <point x="333" y="394" type="curve" smooth="yes"/>
      <point x="394" y="358"/>
      <point x="461" y="311"/>
      <point x="461" y="209" type="curve" smooth="yes"/>
      <point x="461" y="122"/>
      <point x="404" y="44"/>
      <point x="329" y="12" type="curve"/>
      <point x="329" y="-47" type="line"/>
    </contour>
    <contour>
      <point x="258" y="568" type="curve"/>
      <point x="258" y="750" type="line"/>
      <point x="329" y="750" type="line"/>
      <point x="329" y="682" type="line"/>
      <point x="392" y="649"/>
      <point x="428" y="580"/>
      <point x="433" y="553" type="curve"/>
      <point x="303" y="510" type="line"/>
      <point x="298" y="557"/>
      <point x="258" y="568"/>
    </contour>
  </outline>
</glyph>
<glyph name="four" format="1">
  <advance width="497"/>
  <unicode hex="0034"/>
  <outline>
    <contour>
      <point x="26" y="145" type="line"/>
      <point x="26" y="272" type="line"/>
      <point x="216" y="598" type="line"/>
      <point x="216" y="351" type="line"/>
      <point x="170" y="272" type="line"/>
      <point x="216" y="272" type="line"/>
      <point x="216" y="145" type="line"/>
    </contour>
    <contour>
      <point x="273" y="0" type="line"/>
      <point x="273" y="701" type="line"/>
      <point x="403" y="701" type="line"/>
      <point x="403" y="272" type="line"/>
      <point x="457" y="272" type="line"/>
      <point x="457" y="145" type="line"/>
      <point x="403" y="145" type="line"/>
      <point x="403" y="0" type="line"/>
    </contour>
  </outline>
</glyph>
<glyph name="five" format="1">
  <advance width="475"/>
  <unicode hex="0035"/>
  <outline>
    <contour>
      <point x="20" y="354" type="line"/>
      <point x="49" y="700" type="line"/>
      <point x="403" y="700" type="line"/>
      <point x="403" y="574" type="line"/>
      <point x="165" y="573" type="line"/>
      <point x="153" y="442" type="line"/>
      <point x="166" y="445"/>
      <point x="181" y="447"/>
      <point x="198" y="447" type="curve"/>
      <point x="198" y="324" type="line"/>
      <point x="164" y="321"/>
      <point x="142" y="301"/>
      <point x="130" y="286" type="curve"/>
    </contour>
    <contour>
      <point x="22" y="107" type="curve"/>
      <point x="125" y="175" type="line"/>
      <point x="141" y="144"/>
      <point x="171" y="131"/>
      <point x="198" y="126" type="curve"/>
      <point x="198" y="0" type="line"/>
      <point x="114" y="0"/>
      <point x="54" y="46"/>
    </contour>
    <contour>
      <point x="252" y="0" type="curve"/>
      <point x="252" y="126" type="line"/>
      <point x="301" y="135"/>
      <point x="332" y="174"/>
      <point x="332" y="224" type="curve" smooth="yes"/>
      <point x="332" y="280"/>
      <point x="290" y="319"/>
      <point x="252" y="324" type="curve"/>
      <point x="252" y="447" type="line"/>
      <point x="395" y="444"/>
      <point x="460" y="333"/>
      <point x="460" y="223" type="curve" smooth="yes"/>
      <point x="460" y="82"/>
      <point x="357" y="2"/>
    </contour>
  </outline>
</glyph>
<glyph name="six" format="1">
  <advance width="510"/>
  <unicode hex="0036"/>
  <outline>
    <contour>
      <point x="237" y="425" type="curve" smooth="yes"/>
      <point x="237" y="379"/>
      <point x="236" y="307"/>
      <point x="236" y="307" type="curve"/>
      <point x="216" y="307"/>
      <point x="169" y="278"/>
      <point x="169" y="219" type="curve"/>
      <point x="169" y="175"/>
      <point x="199" y="128"/>
      <point x="237" y="124" type="curve"/>
      <point x="237" y="-1" type="line"/>
      <point x="62" y="-1"/>
      <point x="35" y="186"/>
      <point x="35" y="358" type="curve"/>
      <point x="35" y="475"/>
      <point x="64" y="696"/>
      <point x="237" y="697" type="curve" smooth="yes"/>
      <point x="237" y="572" type="line"/>
      <point x="174" y="565"/>
      <point x="159" y="448"/>
      <point x="159" y="399" type="curve"/>
      <point x="178" y="414"/>
      <point x="217" y="425"/>
    </contour>
    <contour>
      <point x="291" y="-1" type="curve"/>
      <point x="291" y="123" type="line"/>
      <point x="326" y="127"/>
      <point x="365" y="159"/>
      <point x="365" y="208" type="curve" smooth="yes"/>
      <point x="365" y="290"/>
      <point x="311" y="309"/>
      <point x="292" y="309" type="curve"/>
      <point x="291" y="425" type="line"/>
      <point x="415" y="425"/>
      <point x="480" y="327"/>
      <point x="480" y="209" type="curve" smooth="yes"/>
      <point x="480" y="84"/>
      <point x="392" y="0"/>
    </contour>
    <contour>
      <point x="291" y="573" type="curve"/>
      <point x="291" y="698" type="line"/>
      <point x="369" y="698"/>
      <point x="424" y="659"/>
      <point x="459" y="600" type="curve"/>
      <point x="364" y="537" type="line"/>
      <point x="345" y="563"/>
      <point x="328" y="573"/>
    </contour>
  </outline>
</glyph>
<glyph name="B" format="1">
  <advance width="496"/>
  <unicode hex="0042"/>
  <outline>
    <contour>
      <point x="42" y="0" type="line"/>
      <point x="42" y="700" type="line"/>
      <point x="183" y="700" type="line"/>
      <point x="183" y="0" type="line"/>
    </contour>
    <contour>
      <point x="237" y="0" type="curve"/>
      <point x="237" y="122" type="line"/>
      <point x="238" y="122"/>
      <point x="240" y="122"/>
      <point x="241" y="122" type="curve" smooth="yes"/>
      <point x="324" y="124"/>
      <point x="340" y="179"/>
      <point x="340" y="205" type="curve" smooth="yes"/>
      <point x="340" y="227"/>
      <point x="327" y="287"/>
      <point x="242" y="289" type="curve" smooth="yes"/>
      <point x="240" y="289"/>
      <point x="239" y="289"/>
      <point x="237" y="289" type="curve"/>
      <point x="237" y="411" type="line"/>
      <point x="240" y="411"/>
      <point x="242" y="411"/>
      <point x="245" y="411" type="curve" smooth="yes"/>
      <point x="301" y="414"/>
      <point x="338" y="448"/>
      <point x="338" y="497" type="curve" smooth="yes"/>
      <point x="338" y="546"/>
      <point x="298" y="574"/>
      <point x="242" y="577" type="curve" smooth="yes"/>
      <point x="240" y="577"/>
      <point x="239" y="577"/>
      <point x="237" y="577" type="curve"/>
      <point x="237" y="700" type="line"/>
      <point x="245" y="701"/>
      <point x="253" y="701"/>
      <point x="261" y="701" type="curve" smooth="yes"/>
      <point x="414" y="701"/>
      <point x="470" y="574"/>
      <point x="470" y="513" type="curve" smooth="yes"/>
      <point x="469" y="421"/>
      <point x="436" y="378"/>
      <point x="401" y="352" type="curve"/>
      <point x="440" y="321"/>
      <point x="474" y="284"/>
      <point x="474" y="197" type="curve" smooth="yes"/>
      <point x="473" y="86"/>
      <point x="382" y="-2"/>
      <point x="265" y="-2" type="curve" smooth="yes"/>
      <point x="256" y="-2"/>
      <point x="246" y="-1"/>
    </contour>
  </outline>
</glyph>
<glyph name="a" format="1">
  <advance width="472"/>
  <unicode hex="0061"/>
  <outline>
    <contour>
      <point x="25" y="133" type="curve" smooth="yes"/>
      <point x="25" y="183" type="line" smooth="yes"/>
      <point x="25" y="220"/>
      <point x="32" y="256"/>
      <point x="79" y="282" type="curve" smooth="yes"/>
      <point x="126" y="310"/>
      <point x="291" y="342"/>
      <point x="291" y="386" type="curve"/>
      <point x="291" y="394"/>
      <point x="291" y="401"/>
      <point x="291" y="409" type="curve" smooth="yes"/>
      <point x="291" y="430"/>
      <point x="279" y="447"/>
      <point x="247" y="448" type="curve"/>
      <point x="247" y="571" type="line"/>
      <point x="362" y="571"/>
      <point x="418" y="468"/>
      <point x="418" y="418" type="curve" smooth="yes"/>
      <point x="418" y="157" type="line" smooth="yes"/>
      <point x="418" y="149"/>
      <point x="422" y="125"/>
      <point x="447" y="125" type="curve"/>
      <point x="447" y="1" type="line"/>
      <point x="404" y="1"/>
      <point x="372" y="13"/>
      <point x="349" y="33" type="curve"/>
      <point x="323" y="12"/>
      <point x="290" y="1"/>
      <point x="248" y="1" type="curve"/>
      <point x="248" y="124" type="line"/>
      <point x="283" y="124"/>
      <point x="291" y="150"/>
      <point x="291" y="164" type="curve" smooth="yes"/>
      <point x="291" y="249" type="line"/>
      <point x="249" y="225"/>
      <point x="164" y="209"/>
      <point x="149" y="201" type="curve" smooth="yes"/>
      <point x="142" y="198"/>
      <point x="136" y="190"/>
      <point x="136" y="178" type="curve" smooth="yes"/>
      <point x="136" y="160" type="line" smooth="yes"/>
      <point x="136" y="136"/>
      <point x="146" y="124"/>
      <point x="194" y="124" type="curve"/>
      <point x="194" y="1" type="line"/>
      <point x="87" y="1"/>
      <point x="25" y="70"/>
    </contour>
    <contour>
      <point x="32" y="428" type="line"/>
      <point x="32" y="509"/>
      <point x="117" y="571"/>
      <point x="195" y="571" type="curve"/>
      <point x="195" y="447" type="line"/>
      <point x="165" y="447"/>
      <point x="148" y="427"/>
      <point x="148" y="384" type="curve"/>
    </contour>
  </outline>
</glyph>
<glyph name="b" format="1">
  <advance width="466"/>
  <unicode hex="0062"/>
  <outline>
    <contour>
      <point x="42" y="-9" type="line"/>
      <point x="42" y="705" type="line"/>
      <point x="180" y="705" type="line"/>
      <point x="180" y="-9" type="line"/>
    </contour>
    <contour>
      <point x="233" y="-9" type="line"/>
      <point x="233" y="121" type="line"/>
      <point x="269" y="121" type="line" smooth="yes"/>
      <point x="300" y="121"/>
      <point x="306" y="147"/>
      <point x="306" y="148" type="curve"/>
      <point x="306" y="401" type="line"/>
      <point x="306" y="403"/>
      <point x="300" y="428"/>
      <point x="270" y="429" type="curve" smooth="yes"/>
      <point x="233" y="429" type="line"/>
      <point x="233" y="558" type="line"/>
      <point x="269" y="558" type="line" smooth="yes"/>
      <point x="381" y="558"/>
      <point x="435" y="455"/>
      <point x="436" y="406" type="curve"/>
      <point x="436" y="146" type="line" smooth="yes"/>
      <point x="436" y="98"/>
      <point x="382" y="-9"/>
      <point x="269" y="-9" type="curve" smooth="yes"/>
    </contour>
  </outline>
</glyph>
<glyph name="c" format="1">
  <advance width="456"/>
  <unicode hex="0063"/>
  <outline>
    <contour>
      <point x="38" y="155" type="curve" smooth="yes"/>
      <point x="38" y="415" type="line" smooth="yes"/>
      <point x="39" y="467"/>
      <point x="91" y="568"/>
      <point x="215" y="568" type="curve"/>
      <point x="215" y="440" type="line"/>
      <point x="180" y="440"/>
      <point x="169" y="424"/>
      <point x="169" y="413" type="curve" smooth="yes"/>
      <point x="169" y="155" type="line" smooth="yes"/>
      <point x="169" y="135"/>
      <point x="183" y="128"/>
      <point x="216" y="127" type="curve"/>
      <point x="216" y="0" type="line"/>
      <point x="86" y="0"/>
      <point x="38" y="103"/>
    </contour>
    <contour>
      <point x="261" y="439" type="curve"/>
      <point x="261" y="568" type="line"/>
      <point x="351" y="568"/>
      <point x="424" y="496"/>
      <point x="424" y="409" type="curve"/>
      <point x="302" y="363" type="line"/>
      <point x="302" y="396" type="line" smooth="yes"/>
      <point x="302" y="428"/>
      <point x="285" y="439"/>
    </contour>
    <contour>
      <point x="261" y="-1" type="curve"/>
      <point x="261" y="128" type="line"/>
      <point x="296" y="128"/>
      <point x="314" y="135"/>
      <point x="314" y="172" type="curve" smooth="yes"/>
      <point x="314" y="205" type="line"/>
      <point x="436" y="158" type="line"/>
      <point x="437" y="73"/>
      <point x="349" y="-4"/>
    </contour>
  </outline>
</glyph>
<glyph name="d" format="1">
  <advance width="461"/>
  <unicode hex="0064"/>
  <outline>
    <contour>
      <point x="30" y="146" type="curve" smooth="yes"/>
      <point x="30" y="406" type="line"/>
      <point x="31" y="455"/>
      <point x="84" y="558"/>
      <point x="195" y="558" type="curve" smooth="yes"/>
      <point x="228" y="558" type="line"/>
      <point x="228" y="429" type="line"/>
      <point x="195" y="429" type="line" smooth="yes"/>
      <point x="165" y="428"/>
      <point x="160" y="403"/>
      <point x="160" y="401" type="curve"/>
      <point x="160" y="148" type="line"/>
      <point x="160" y="146"/>
      <point x="166" y="121"/>
      <point x="197" y="121" type="curve" smooth="yes"/>
      <point x="228" y="121" type="line"/>
      <point x="228" y="-9" type="line"/>
      <point x="197" y="-9" type="line" smooth="yes"/>
      <point x="83" y="-9"/>
      <point x="30" y="98"/>
    </contour>
    <contour>
      <point x="281" y="-9" type="line"/>
      <point x="281" y="707" type="line"/>
      <point x="419" y="707" type="line"/>
      <point x="419" y="-9" type="line"/>
    </contour>
  </outline>
</glyph>
<glyph name="e" format="1">
  <advance width="485"/>
  <unicode hex="0065"/>
  <outline>
    <contour>
      <point x="38" y="155" type="curve" smooth="yes"/>
      <point x="38" y="415" type="line"/>
      <point x="39" y="468"/>
      <point x="99" y="568"/>
      <point x="215" y="568" type="curve"/>
      <point x="215" y="442" type="line"/>
      <point x="189" y="442"/>
      <point x="172" y="421"/>
      <point x="172" y="406" type="curve" smooth="yes"/>
      <point x="172" y="356" type="line"/>
      <point x="321" y="356" type="line"/>
      <point x="321" y="405" type="line" smooth="yes"/>
      <point x="321" y="437"/>
      <point x="293" y="442"/>
      <point x="269" y="442" type="curve"/>
      <point x="269" y="568" type="line"/>
      <point x="350" y="568"/>
      <point x="446" y="507"/>
      <point x="446" y="416" type="curve" smooth="yes"/>
      <point x="446" y="229" type="line"/>
      <point x="172" y="229" type="line"/>
      <point x="172" y="155" type="line" smooth="yes"/>
      <point x="172" y="140"/>
      <point x="182" y="123"/>
      <point x="216" y="123" type="curve"/>
      <point x="216" y="0" type="line"/>
      <point x="98" y="0"/>
      <point x="38" y="102"/>
    </contour>
    <contour>
      <point x="269" y="0" type="curve"/>
      <point x="269" y="122" type="line"/>
      <point x="311" y="122"/>
      <point x="330" y="145"/>
      <point x="338" y="173" type="curve"/>
      <point x="447" y="132" type="line"/>
      <point x="432" y="68"/>
      <point x="365" y="0"/>
    </contour>
  </outline>
</glyph>
<glyph name="f" format="1">
  <advance width="321"/>
  <unicode hex="0066"/>
  <outline>
    <contour>
      <point x="15" y="391" type="line"/>
      <point x="15" y="519" type="line"/>
      <point x="85" y="519" type="line"/>
      <point x="85" y="558" type="line" smooth="yes"/>
      <point x="85" y="608"/>
      <point x="141" y="715"/>
      <point x="254" y="717" type="curve" smooth="yes"/>
      <point x="321" y="717" type="line"/>
      <point x="291" y="588" type="line"/>
      <point x="255" y="588" type="line" smooth="yes"/>
      <point x="224" y="587"/>
      <point x="219" y="561"/>
      <point x="219" y="558" type="curve" smooth="yes"/>
      <point x="219" y="517" type="line"/>
      <point x="291" y="519" type="line"/>
      <point x="291" y="391" type="line"/>
      <point x="219" y="391" type="line"/>
      <point x="219" y="-9" type="line"/>
      <point x="85" y="-9" type="line"/>
      <point x="85" y="391" type="line"/>
    </contour>
  </outline>
</glyph>
<glyph name="g" format="1">
  <advance width="456"/>
  <unicode hex="0067"/>
  <outline>
    <contour>
      <point x="20" y="-190" type="line"/>
      <point x="51" y="-67" type="line"/>
      <point x="249" y="-67" type="line"/>
      <point x="283" y="-66"/>
      <point x="291" y="-38"/>
      <point x="291" y="-35" type="curve" smooth="yes"/>
      <point x="291" y="12" type="line"/>
      <point x="276" y="9"/>
      <point x="262" y="8"/>
      <point x="246" y="8" type="curve"/>
      <point x="246" y="132" type="line"/>
      <point x="281" y="132"/>
      <point x="291" y="150"/>
      <point x="291" y="165" type="curve" smooth="yes"/>
      <point x="291" y="420" type="line" smooth="yes"/>
      <point x="291" y="426"/>
      <point x="281" y="452"/>
      <point x="246" y="452" type="curve"/>
      <point x="246" y="577" type="line"/>
      <point x="261" y="577"/>
      <point x="277" y="575"/>
      <point x="291" y="571" type="curve"/>
      <point x="291" y="577" type="line"/>
      <point x="419" y="577" type="line"/>
      <point x="419" y="-35" type="line" smooth="yes"/>
      <point x="419" y="-82"/>
      <point x="364" y="-189"/>
      <point x="251" y="-190" type="curve"/>
    </contour>
    <contour>
      <point x="30" y="162" type="curve" smooth="yes"/>
      <point x="30" y="425" type="line"/>
      <point x="31" y="475"/>
      <point x="86" y="577"/>
      <point x="203" y="577" type="curve"/>
      <point x="203" y="452" type="line"/>
      <point x="166" y="452"/>
      <point x="156" y="427"/>
      <point x="156" y="422" type="curve" smooth="yes"/>
      <point x="156" y="163" type="line" smooth="yes"/>
      <point x="156" y="150"/>
      <point x="167" y="132"/>
      <point x="203" y="132" type="curve"/>
      <point x="203" y="8" type="line"/>
      <point x="85" y="8"/>
      <point x="30" y="113"/>
    </contour>
  </outline>
</glyph>
<glyph name="h" format="1">
  <advance width="473"/>
  <unicode hex="0068"/>
  <outline>
    <contour>
      <point x="42" y="-8" type="line"/>
      <point x="42" y="707" type="line"/>
      <point x="167" y="707" type="line"/>
      <point x="167" y="546" type="line"/>
      <point x="181" y="551"/>
      <point x="203" y="553"/>
      <point x="221" y="553" type="curve"/>
      <point x="221" y="430" type="line"/>
      <point x="184" y="430"/>
      <point x="168" y="397"/>
      <point x="168" y="392" type="curve" smooth="yes"/>
      <point x="168" y="-8" type="line"/>
    </contour>
    <contour>
      <point x="270" y="430" type="curve"/>
      <point x="270" y="553" type="line"/>
      <point x="379" y="553"/>
      <point x="443" y="478"/>
      <point x="443" y="402" type="curve" smooth="yes"/>
      <point x="443" y="-8" type="line"/>
      <point x="318" y="-8" type="line"/>
      <point x="318" y="392" type="line" smooth="yes"/>
      <point x="318" y="396"/>
      <point x="309" y="430"/>
    </contour>
  </outline>
</glyph>
<glyph name="i" format="1">
  <advance width="245"/>
  <unicode hex="0069"/>
  <outline>
    <contour>
      <point x="50" y="651" type="curve" smooth="yes"/>
      <point x="50" y="690"/>
      <point x="83" y="723"/>
      <point x="123" y="723" type="curve" smooth="yes"/>
      <point x="162" y="723"/>
      <point x="195" y="690"/>
      <point x="195" y="651" type="curve" smooth="yes"/>
      <point x="195" y="612"/>
      <point x="162" y="579"/>
      <point x="123" y="579" type="curve" smooth="yes"/>
      <point x="83" y="579"/>
      <point x="50" y="612"/>
    </contour>
    <contour>
      <point x="57" y="-9" type="line"/>
      <point x="57" y="540" type="line"/>
      <point x="191" y="540" type="line"/>
      <point x="191" y="-9" type="line"/>
    </contour>
  </outline>
</glyph>
<glyph name="j" format="1">
  <advance width="242"/>
  <unicode hex="006A"/>
  <outline>
    <contour>
      <point x="-42" y="-199" type="line"/>
      <point x="-12" y="-71" type="line"/>
      <point x="17" y="-71" type="line"/>
      <point x="48" y="-70"/>
      <point x="54" y="-44"/>
      <point x="54" y="-42" type="curve" smooth="yes"/>
      <point x="54" y="538" type="line"/>
      <point x="188" y="538" type="line"/>
      <point x="188" y="-42" type="line" smooth="yes"/>
      <point x="188" y="-94"/>
      <point x="133" y="-199"/>
      <point x="21" y="-199" type="curve" smooth="yes"/>
    </contour>
    <contour>
      <point x="47" y="662" type="curve" smooth="yes"/>
      <point x="47" y="701"/>
      <point x="80" y="735"/>
      <point x="120" y="735" type="curve" smooth="yes"/>
      <point x="159" y="735"/>
      <point x="192" y="701"/>
      <point x="192" y="662" type="curve" smooth="yes"/>
      <point x="192" y="622"/>
      <point x="159" y="590"/>
      <point x="120" y="590" type="curve" smooth="yes"/>
      <point x="80" y="590"/>
      <point x="47" y="622"/>
    </contour>
  </outline>
</glyph>
<glyph name="k" format="1">
  <advance width="500"/>
  <unicode hex="006B"/>
  <outline>
    <contour>
      <point x="42" y="-9" type="line"/>
      <point x="42" y="707" type="line"/>
      <point x="180" y="707" type="line"/>
      <point x="180" y="-9" type="line"/>
    </contour>
    <contour>
      <point x="211" y="274" type="line"/>
      <point x="334" y="556" type="line"/>
      <point x="480" y="556" type="line"/>
      <point x="354" y="274" type="line"/>
      <point x="480" y="-9" type="line"/>
      <point x="335" y="-9" type="line"/>
    </contour>
  </outline>
</glyph>
<glyph name="l" format="1">
  <advance width="228"/>
  <unicode hex="006C"/>
  <outline>
    <contour>
      <point x="42" y="-9" type="line"/>
      <point x="42" y="707" type="line"/>
      <point x="186" y="707" type="line"/>
      <point x="186" y="-9" type="line"/>
    </contour>
  </outline>
</glyph>
<glyph name="m" format="1">
  <advance width="762"/>
  <unicode hex="006D"/>
  <outline>
    <contour>
      <point x="38" y="0" type="line"/>
      <point x="38" y="415" type="line" smooth="yes"/>
      <point x="38" y="471"/>
      <point x="100" y="571"/>
      <point x="219" y="571" type="curve"/>
      <point x="219" y="438" type="line"/>
      <point x="184" y="438"/>
      <point x="174" y="415"/>
      <point x="174" y="398" type="curve" smooth="yes"/>
      <point x="174" y="0" type="line"/>
    </contour>
    <contour>
      <point x="265" y="438" type="curve"/>
      <point x="265" y="571" type="line"/>
      <point x="316" y="571"/>
      <point x="351" y="557"/>
      <point x="381" y="534" type="curve"/>
      <point x="410" y="558"/>
      <point x="446" y="571"/>
      <point x="496" y="571" type="curve"/>
      <point x="496" y="438" type="line"/>
      <point x="460" y="438"/>
      <point x="449" y="419"/>
      <point x="449" y="398" type="curve"/>
      <point x="449" y="0" type="line"/>
      <point x="313" y="0" type="line"/>
      <point x="313" y="398" type="line" smooth="yes"/>
      <point x="313" y="420"/>
      <point x="301" y="438"/>
    </contour>
    <contour>
      <point x="541" y="438" type="curve"/>
      <point x="541" y="571" type="line"/>
      <point x="662" y="571"/>
      <point x="724" y="468"/>
      <point x="724" y="415" type="curve" smooth="yes"/>
      <point x="724" y="0" type="line"/>
      <point x="588" y="0" type="line"/>
      <point x="588" y="398" type="line" smooth="yes"/>
      <point x="588" y="422"/>
      <point x="577" y="438"/>
    </contour>
  </outline>
</glyph>
<glyph name="n" format="1">
  <advance width="487"/>
  <unicode hex="006E"/>
  <outline>
    <contour>
      <point x="38" y="0" type="line"/>
      <point x="38" y="415" type="line" smooth="yes"/>
      <point x="38" y="471"/>
      <point x="99" y="571"/>
      <point x="220" y="571" type="curve"/>
      <point x="220" y="438" type="line"/>
      <point x="184" y="438"/>
      <point x="174" y="416"/>
      <point x="174" y="399" type="curve" smooth="yes"/>
      <point x="174" y="0" type="line"/>
    </contour>
    <contour>
      <point x="266" y="438" type="curve"/>
      <point x="266" y="571" type="line"/>
      <point x="387" y="571"/>
      <point x="449" y="468"/>
      <point x="449" y="415" type="curve" smooth="yes"/>
      <point x="449" y="0" type="line"/>
      <point x="313" y="0" type="line"/>
      <point x="313" y="399" type="line" smooth="yes"/>
      <point x="313" y="418"/>
      <point x="301" y="438"/>
    </contour>
  </outline>
</glyph>
<glyph name="o" format="1">
  <advance width="476"/>
  <unicode hex="006F"/>
  <outline>
    <contour>
      <point x="38" y="155" type="curve" smooth="yes"/>
      <point x="38" y="414" type="line" smooth="yes"/>
      <point x="38" y="467"/>
      <point x="97" y="568"/>
      <point x="218" y="568" type="curve"/>
      <point x="218" y="438" type="line"/>
      <point x="179" y="438"/>
      <point x="170" y="415"/>
      <point x="170" y="399" type="curve" smooth="yes"/>
      <point x="170" y="169" type="line" smooth="yes"/>
      <point x="170" y="145"/>
      <point x="182" y="129"/>
      <point x="218" y="129" type="curve"/>
      <point x="218" y="-1" type="line"/>
      <point x="96" y="-1"/>
      <point x="38" y="103"/>
    </contour>
    <contour>
      <point x="264" y="-1" type="curve"/>
      <point x="264" y="129" type="line"/>
      <point x="301" y="129"/>
      <point x="310" y="152"/>
      <point x="310" y="167" type="curve" smooth="yes"/>
      <point x="310" y="399" type="line" smooth="yes"/>
      <point x="310" y="422"/>
      <point x="300" y="438"/>
      <point x="264" y="438" type="curve"/>
      <point x="264" y="568" type="line"/>
      <point x="381" y="568"/>
      <point x="438" y="467"/>
      <point x="438" y="414" type="curve" smooth="yes"/>
      <point x="438" y="155" type="line" smooth="yes"/>
      <point x="438" y="101"/>
      <point x="382" y="-1"/>
    </contour>
  </outline>
</glyph>
<glyph name="p" format="1">
  <advance width="481"/>
  <unicode hex="0070"/>
  <outline>
    <contour>
      <point x="42" y="-191" type="line"/>
      <point x="42" y="577" type="line"/>
      <point x="180" y="577" type="line"/>
      <point x="180" y="-191" type="line"/>
    </contour>
    <contour>
      <point x="225" y="447" type="line"/>
      <point x="225" y="577" type="line"/>
      <point x="260" y="577" type="line" smooth="yes"/>
      <point x="378" y="577"/>
      <point x="445" y="483"/>
      <point x="445" y="422" type="curve" smooth="yes"/>
      <point x="445" y="162" type="line"/>
      <point x="445" y="104"/>
      <point x="389" y="9"/>
      <point x="264" y="9" type="curve" smooth="yes"/>
      <point x="232" y="9" type="line"/>
      <point x="232" y="139" type="line"/>
      <point x="266" y="139" type="line" smooth="yes"/>
      <point x="307" y="140"/>
      <point x="313" y="156"/>
      <point x="313" y="166" type="curve" smooth="yes"/>
      <point x="313" y="418" type="line"/>
      <point x="313" y="433"/>
      <point x="293" y="447"/>
      <point x="260" y="447" type="curve" smooth="yes"/>
    </contour>
  </outline>
</glyph>
<glyph name="q" format="1">
  <advance width="476"/>
  <unicode hex="0071"/>
  <outline>
    <contour>
      <point x="38" y="162" type="curve"/>
      <point x="38" y="422" type="line" smooth="yes"/>
      <point x="38" y="471"/>
      <point x="93" y="577"/>
      <point x="211" y="577" type="curve" smooth="yes"/>
      <point x="245" y="577" type="line"/>
      <point x="245" y="447" type="line"/>
      <point x="211" y="447" type="line" smooth="yes"/>
      <point x="176" y="447"/>
      <point x="170" y="422"/>
      <point x="170" y="419" type="curve"/>
      <point x="170" y="166" type="line" smooth="yes"/>
      <point x="170" y="164"/>
      <point x="174" y="140"/>
      <point x="216" y="139" type="curve" smooth="yes"/>
      <point x="250" y="139" type="line"/>
      <point x="250" y="9" type="line"/>
      <point x="218" y="9" type="line" smooth="yes"/>
      <point x="94" y="9"/>
      <point x="39" y="111"/>
    </contour>
    <contour>
      <point x="298" y="-191" type="line"/>
      <point x="297" y="577" type="line"/>
      <point x="433" y="577" type="line"/>
      <point x="434" y="-191" type="line"/>
    </contour>
  </outline>
</glyph>
<glyph name="r" format="1">
  <advance width="361"/>
  <unicode hex="0072"/>
  <outline>
    <contour>
      <point x="42" y="0" type="line"/>
      <point x="42" y="568" type="line"/>
      <point x="178" y="568" type="line"/>
      <point x="178" y="499" type="line"/>
      <point x="201" y="529"/>
      <point x="254" y="568"/>
      <point x="315" y="568" type="curve" smooth="yes"/>
      <point x="351" y="568" type="line"/>
      <point x="320" y="434" type="line"/>
      <point x="247" y="433"/>
      <point x="178" y="364"/>
      <point x="178" y="298" type="curve" smooth="yes"/>
      <point x="178" y="0" type="line"/>
    </contour>
  </outline>
</glyph>
<glyph name="s" format="1">
  <advance width="454"/>
  <unicode hex="0073"/>
  <outline>
    <contour>
      <point x="20" y="150" type="curve"/>
      <point x="144" y="173" type="line"/>
      <point x="144" y="143"/>
      <point x="173" y="122"/>
      <point x="200" y="121" type="curve"/>
      <point x="200" y="-5" type="line"/>
      <point x="72" y="-5"/>
      <point x="20" y="78"/>
    </contour>
    <contour>
      <point x="26" y="408" type="curve" smooth="yes"/>
      <point x="26" y="522"/>
      <point x="136" y="569"/>
      <point x="198" y="569" type="curve"/>
      <point x="198" y="445" type="line"/>
      <point x="152" y="445"/>
      <point x="149" y="419"/>
      <point x="149" y="408" type="curve" smooth="yes"/>
      <point x="149" y="386"/>
      <point x="166" y="360"/>
      <point x="321" y="326" type="curve" smooth="yes"/>
      <point x="378" y="315"/>
      <point x="434" y="267"/>
      <point x="434" y="176" type="curve" smooth="yes"/>
      <point x="434" y="61"/>
      <point x="349" y="-5"/>
      <point x="245" y="-5" type="curve"/>
      <point x="245" y="121" type="line"/>
      <point x="264" y="121"/>
      <point x="305" y="132"/>
      <point x="305" y="168" type="curve" smooth="yes"/>
      <point x="305" y="218"/>
      <point x="182" y="227"/>
      <point x="119" y="255" type="curve" smooth="yes"/>
      <point x="66" y="282"/>
      <point x="26" y="316"/>
    </contour>
    <contour>
      <point x="243" y="445" type="curve"/>
      <point x="244" y="569" type="line"/>
      <point x="351" y="569"/>
      <point x="424" y="486"/>
      <point x="424" y="412" type="curve"/>
      <point x="301" y="391" type="line"/>
      <point x="301" y="440"/>
      <point x="253" y="445"/>
    </contour>
  </outline>
</glyph>
<glyph name="t" format="1">
  <advance width="314"/>
  <unicode hex="0074"/>
  <outline>
    <contour>
      <point x="15" y="429" type="line"/>
      <point x="15" y="558" type="line"/>
      <point x="84" y="558" type="line"/>
      <point x="84" y="706" type="line"/>
      <point x="218" y="706" type="line"/>
      <point x="218" y="558" type="line"/>
      <point x="284" y="558" type="line"/>
      <point x="284" y="429" type="line"/>
      <point x="218" y="429" type="line"/>
      <point x="218" y="166" type="line" smooth="yes"/>
      <point x="218" y="150"/>
      <point x="224" y="129"/>
      <point x="255" y="128" type="curve" smooth="yes"/>
      <point x="284" y="128" type="line"/>
      <point x="314" y="-9" type="line"/>
      <point x="254" y="-9" type="line" smooth="yes"/>
      <point x="119" y="-8"/>
      <point x="84" y="63"/>
      <point x="84" y="176" type="curve" smooth="yes"/>
      <point x="84" y="429" type="line"/>
    </contour>
  </outline>
</glyph>
<glyph name="u" format="1">
  <advance width="487"/>
  <unicode hex="0075"/>
  <outline>
    <contour>
      <point x="38" y="151" type="curve" smooth="yes"/>
      <point x="38" y="566" type="line"/>
      <point x="174" y="566" type="line"/>
      <point x="174" y="167" type="line" smooth="yes"/>
      <point x="174" y="148"/>
      <point x="184" y="128"/>
      <point x="220" y="128" type="curve"/>
      <point x="220" y="-5" type="line"/>
      <point x="99" y="-5"/>
      <point x="38" y="95"/>
    </contour>
    <contour>
      <point x="266" y="-5" type="curve"/>
      <point x="266" y="128" type="line"/>
      <point x="302" y="128"/>
      <point x="313" y="149"/>
      <point x="313" y="167" type="curve" smooth="yes"/>
      <point x="313" y="566" type="line"/>
      <point x="449" y="566" type="line"/>
      <point x="449" y="151" type="line" smooth="yes"/>
      <point x="449" y="98"/>
      <point x="387" y="-5"/>
    </contour>
  </outline>
</glyph>
<glyph name="v" format="1">
  <advance width="438"/>
  <unicode hex="0076"/>
  <outline>
    <contour>
      <point x="8" y="566" type="line"/>
      <point x="156" y="568" type="line"/>
      <point x="305" y="132" type="line"/>
      <point x="257" y="0" type="line"/>
      <point x="181" y="0" type="line"/>
    </contour>
    <contour>
      <point x="245" y="433" type="line"/>
      <point x="286" y="568" type="line"/>
      <point x="430" y="566" type="line"/>
      <point x="329" y="229" type="line"/>
      <point x="316" y="229" type="line"/>
    </contour>
  </outline>
</glyph>
<glyph name="x" format="1">
  <advance width="416"/>
  <unicode hex="0078"/>
  <outline>
    <contour>
      <point x="8" y="0" type="line"/>
      <point x="133" y="288" type="line"/>
      <point x="12" y="568" type="line"/>
      <point x="150" y="568" type="line"/>
      <point x="208" y="439" type="line"/>
      <point x="265" y="566" type="line"/>
      <point x="404" y="566" type="line"/>
      <point x="284" y="288" type="line"/>
      <point x="408" y="0" type="line"/>
      <point x="271" y="0" type="line"/>
      <point x="208" y="139" type="line"/>
      <point x="145" y="0" type="line"/>
    </contour>
  </outline>
</glyph>
<glyph name="y" format="1">
  <advance width="429"/>
  <unicode hex="0079"/>
  <outline>
    <contour>
      <point x="5" y="575" type="line"/>
      <point x="149" y="576" type="line"/>
      <point x="282" y="131" type="line"/>
      <point x="175" y="-191" type="line"/>
      <point x="37" y="-191" type="line"/>
      <point x="135" y="133" type="line"/>
    </contour>
    <contour>
      <point x="239" y="441" type="line"/>
      <point x="281" y="576" type="line"/>
      <point x="425" y="575" type="line"/>
      <point x="312" y="238" type="line"/>
      <point x="299" y="238" type="line"/>
    </contour>
  </outline>
</glyph>
<glyph name="z" format="1">
  <advance width="386"/>
  <unicode hex="007A"/>
  <outline>
    <contour>
      <point x="30" y="0" type="line"/>
      <point x="30" y="128" type="line"/>
      <point x="203" y="433" type="line"/>
      <point x="30" y="433" type="line"/>
      <point x="30" y="565" type="line"/>
      <point x="356" y="565" type="line"/>
      <point x="356" y="440" type="line"/>
      <point x="188" y="130" type="line"/>
      <point x="356" y="129" type="line"/>
      <point x="356" y="0" type="line"/>
    </contour>
  </outline>
</glyph>
<glyph name="braceleft" format="1">
  <advance width="292"/>
  <unicode hex="007B"/>
  <outline>
    <contour>
      <point x="15" y="348" type="curve"/>
      <point x="51" y="363"/>
      <point x="76" y="370"/>
      <point x="77" y="408" type="curve" smooth="yes"/>
      <point x="77" y="504" type="line" smooth="yes"/>
      <point x="77" y="715"/>
      <point x="163" y="735"/>
      <point x="272" y="735" type="curve"/>
      <point x="272" y="635" type="line"/>
      <point x="204" y="635"/>
      <point x="205" y="591"/>
      <point x="204" y="469" type="curve"/>
      <point x="204" y="383" type="line" smooth="yes"/>
      <point x="204" y="366"/>
      <point x="184" y="354"/>
      <point x="160" y="348" type="curve"/>
      <point x="185" y="340"/>
      <point x="204" y="325"/>
      <point x="204" y="304" type="curve" smooth="yes"/>
      <point x="204" y="207" type="line"/>
      <point x="204" y="86"/>
      <point x="218" y="61"/>
      <point x="272" y="61" type="curve"/>
      <point x="272" y="-38" type="line"/>
      <point x="168" y="-37"/>
      <point x="77" y="-41"/>
      <point x="77" y="192" type="curve" smooth="yes"/>
      <point x="77" y="290" type="line" smooth="yes"/>
      <point x="77" y="322"/>
      <point x="51" y="329"/>
    </contour>
  </outline>
</glyph>
<glyph name="exclamdown" format="1">
  <advance width="245"/>
  <unicode hex="00A1"/>
  <outline>
    <contour>
      <point x="21" y="495" type="curve" smooth="yes"/>
      <point x="21" y="539"/>
      <point x="58" y="575"/>
      <point x="102" y="575" type="curve" smooth="yes"/>
      <point x="146" y="575"/>
      <point x="182" y="539"/>
      <point x="182" y="495" type="curve" smooth="yes"/>
      <point x="182" y="452"/>
      <point x="146" y="415"/>
      <point x="102" y="415" type="curve" smooth="yes"/>
      <point x="58" y="415"/>
      <point x="21" y="452"/>
    </contour>
    <contour>
      <point x="36" y="-198" type="line"/>
      <point x="36" y="369" type="line"/>
      <point x="170" y="369" type="line"/>
      <point x="170" y="-198" type="line"/>
    </contour>
  </outline>
</glyph>
<glyph name="cent" format="1">
  <advance width="456"/>
  <unicode hex="00A2"/>
  <outline>
    <contour>
      <point x="261" y="31" type="line"/>
      <point x="312" y="31" type="line"/>
      <point x="312" y="-94" type="line"/>
      <point x="261" y="-94" type="line"/>
    </contour>
    <contour>
      <point x="165" y="31" type="line"/>
      <point x="215" y="31" type="line"/>
      <point x="215" y="-94" type="line"/>
      <point x="165" y="-94" type="line"/>
    </contour>
    <contour>
      <point x="261" y="662" type="line"/>
      <point x="312" y="662" type="line"/>
      <point x="312" y="537" type="line"/>
      <point x="261" y="537" type="line"/>
    </contour>
    <contour>
      <point x="165" y="662" type="line"/>
      <point x="215" y="662" type="line"/>
      <point x="215" y="537" type="line"/>
      <point x="165" y="537" type="line"/>
    </contour>
    <contour>
      <point x="38" y="155" type="curve" smooth="yes"/>
      <point x="38" y="415" type="line" smooth="yes"/>
      <point x="39" y="467"/>
      <point x="95" y="568"/>
      <point x="215" y="568" type="curve"/>
      <point x="215" y="440" type="line"/>
      <point x="179" y="440"/>
      <point x="169" y="420"/>
      <point x="169" y="400" type="curve" smooth="yes"/>
      <point x="169" y="165" type="line" smooth="yes"/>
      <point x="169" y="151"/>
      <point x="182" y="129"/>
      <point x="215" y="128" type="curve"/>
      <point x="215" y="0" type="line"/>
      <point x="85" y="0"/>
      <point x="38" y="103"/>
    </contour>
    <contour>
      <point x="261" y="439" type="curve"/>
      <point x="261" y="568" type="line"/>
      <point x="349" y="568"/>
      <point x="424" y="496"/>
      <point x="424" y="409" type="curve"/>
      <point x="302" y="363" type="line"/>
      <point x="302" y="399" type="line" smooth="yes"/>
      <point x="302" y="428"/>
      <point x="281" y="439"/>
    </contour>
    <contour>
      <point x="261" y="-1" type="curve"/>
      <point x="261" y="128" type="line"/>
      <point x="286" y="128"/>
      <point x="314" y="135"/>
      <point x="314" y="172" type="curve" smooth="yes"/>
      <point x="314" y="205" type="line"/>
      <point x="436" y="158" type="line"/>
      <point x="436" y="71"/>
      <point x="349" y="-1"/>
    </contour>
  </outline>
</glyph>
<glyph name="currency" format="1">
  <advance width="646"/>
  <unicode hex="00A4"/>
  <outline>
    <contour>
      <point x="41" y="190" type="line"/>
      <point x="136" y="275" type="line"/>
      <point x="136" y="288" type="line" smooth="yes"/>
      <point x="136" y="440" type="line" smooth="yes"/>
      <point x="136" y="456" type="line"/>
      <point x="40" y="540" type="line"/>
      <point x="112" y="622" type="line"/>
      <point x="188" y="555" type="line"/>
      <point x="215" y="580"/>
      <point x="251" y="595"/>
      <point x="300" y="595" type="curve"/>
      <point x="300" y="477" type="line"/>
      <point x="265" y="477"/>
      <point x="256" y="458"/>
      <point x="256" y="442" type="curve" smooth="yes"/>
      <point x="256" y="285" type="line" smooth="yes"/>
      <point x="256" y="266"/>
      <point x="268" y="251"/>
      <point x="300" y="251" type="curve"/>
      <point x="300" y="133" type="line"/>
      <point x="250" y="133"/>
      <point x="214" y="149"/>
      <point x="187" y="175" type="curve"/>
      <point x="112" y="109" type="line"/>
    </contour>
    <contour>
      <point x="341" y="133" type="curve"/>
      <point x="341" y="250" type="line"/>
      <point x="374" y="250"/>
      <point x="383" y="269"/>
      <point x="383" y="285" type="curve" smooth="yes"/>
      <point x="383" y="441" type="line" smooth="yes"/>
      <point x="383" y="460"/>
      <point x="373" y="477"/>
      <point x="341" y="477" type="curve"/>
      <point x="341" y="595" type="line"/>
      <point x="388" y="595"/>
      <point x="422" y="580"/>
      <point x="449" y="555" type="curve"/>
      <point x="524" y="622" type="line"/>
      <point x="596" y="540" type="line"/>
      <point x="500" y="455" type="line"/>
      <point x="500" y="442" type="line" smooth="yes"/>
      <point x="500" y="288" type="line" smooth="yes"/>
      <point x="500" y="275" type="line"/>
      <point x="595" y="190" type="line"/>
      <point x="524" y="109" type="line"/>
      <point x="450" y="174" type="line"/>
      <point x="423" y="148"/>
      <point x="389" y="133"/>
    </contour>
  </outline>
</glyph>
<glyph name="yen" format="1">
  <advance width="449"/>
  <unicode hex="00A5"/>
  <outline>
    <contour>
      <point x="16" y="299" type="line"/>
      <point x="441" y="299" type="line"/>
      <point x="441" y="239" type="line"/>
      <point x="16" y="239" type="line"/>
    </contour>
    <contour>
      <point x="16" y="409" type="line"/>
      <point x="441" y="409" type="line"/>
      <point x="441" y="349" type="line"/>
      <point x="16" y="349" type="line"/>
    </contour>
    <contour>
      <point x="165" y="0" type="line"/>
      <point x="165" y="238" type="line"/>
      <point x="35" y="698" type="line"/>
      <point x="172" y="698" type="line"/>
      <point x="235" y="485" type="line"/>
      <point x="295" y="698" type="line"/>
      <point x="432" y="698" type="line"/>
      <point x="302" y="236" type="line"/>
      <point x="302" y="0" type="line"/>
    </contour>
  </outline>
</glyph>
<glyph name="copyright" format="1">
  <advance width="824"/>
  <unicode hex="00A9"/>
  <outline>
    <contour>
      <point x="35" y="339" type="curve" smooth="yes"/>
      <point x="35" y="589"/>
      <point x="249" y="725"/>
      <point x="397" y="726" type="curve"/>
      <point x="397" y="636" type="line"/>
      <point x="268" y="635"/>
      <point x="124" y="516"/>
      <point x="124" y="339" type="curve" smooth="yes"/>
      <point x="124" y="181"/>
      <point x="249" y="51"/>
      <point x="397" y="44" type="curve"/>
      <point x="397" y="-49" type="line"/>
      <point x="222" y="-43"/>
      <point x="35" y="108"/>
    </contour>
    <contour>
      <point x="272" y="231" type="curve" smooth="yes"/>
      <point x="272" y="447" type="line" smooth="yes"/>
      <point x="272" y="485"/>
      <point x="306" y="566"/>
      <point x="397" y="566" type="curve"/>
      <point x="397" y="476" type="line"/>
      <point x="368" y="476"/>
      <point x="362" y="450"/>
      <point x="362" y="447" type="curve" smooth="yes"/>
      <point x="362" y="231" type="line" smooth="yes"/>
      <point x="362" y="228"/>
      <point x="368" y="203"/>
      <point x="397" y="203" type="curve"/>
      <point x="397" y="112" type="line"/>
      <point x="306" y="112"/>
      <point x="272" y="193"/>
    </contour>
    <contour>
      <point x="432" y="-49" type="curve"/>
      <point x="432" y="44" type="line"/>
      <point x="578" y="51"/>
      <point x="705" y="179"/>
      <point x="705" y="332" type="curve" smooth="yes"/>
      <point x="705" y="513"/>
      <point x="565" y="635"/>
      <point x="432" y="636" type="curve"/>
      <point x="432" y="726" type="line"/>
      <point x="587" y="725"/>
      <point x="794" y="585"/>
      <point x="794" y="327" type="curve" smooth="yes"/>
      <point x="788" y="104"/>
      <point x="604" y="-43"/>
    </contour>
    <contour>
      <point x="432" y="112" type="curve"/>
      <point x="432" y="201" type="line"/>
      <point x="449" y="201"/>
      <point x="462" y="217"/>
      <point x="462" y="242" type="curve" smooth="yes"/>
      <point x="462" y="264" type="line"/>
      <point x="550" y="232" type="line"/>
      <point x="550" y="171"/>
      <point x="491" y="112"/>
    </contour>
    <contour>
      <point x="432" y="476" type="curve"/>
      <point x="432" y="566" type="line"/>
      <point x="491" y="566"/>
      <point x="550" y="507"/>
      <point x="550" y="446" type="curve"/>
      <point x="462" y="413" type="line"/>
      <point x="462" y="432" type="line" smooth="yes"/>
      <point x="462" y="462"/>
      <point x="446" y="476"/>
    </contour>
  </outline>
</glyph>
<glyph name="degree" format="1">
  <advance width="301"/>
  <unicode hex="00B0"/>
  <outline>
    <contour>
      <point x="35" y="583" type="curve" smooth="yes"/>
      <point x="35" y="647"/>
      <point x="87" y="698"/>
      <point x="150" y="698" type="curve" smooth="yes"/>
      <point x="214" y="698"/>
      <point x="266" y="647"/>
      <point x="266" y="583" type="curve" smooth="yes"/>
      <point x="266" y="520"/>
      <point x="214" y="468"/>
      <point x="150" y="468" type="curve" smooth="yes"/>
      <point x="87" y="468"/>
      <point x="35" y="520"/>
    </contour>
    <contour>
      <point x="112" y="583" type="curve" smooth="yes"/>
      <point x="112" y="562"/>
      <point x="129" y="545"/>
      <point x="150" y="545" type="curve" smooth="yes"/>
      <point x="172" y="545"/>
      <point x="189" y="562"/>
      <point x="189" y="583" type="curve" smooth="yes"/>
      <point x="189" y="605"/>
      <point x="172" y="622"/>
      <point x="150" y="622" type="curve" smooth="yes"/>
      <point x="129" y="622"/>
      <point x="112" y="605"/>
    </contour>
  </outline>
</glyph>
<glyph name="uni00B5" format="1">
  <advance width="503"/>
  <unicode hex="00B5"/>
  <outline>
    <contour>
      <point x="48" y="0" type="line"/>
      <point x="48" y="698" type="line"/>
      <point x="172" y="698" type="line"/>
      <point x="172" y="326" type="line" smooth="yes"/>
      <point x="172" y="313"/>
      <point x="181" y="300"/>
      <point x="214" y="300" type="curve"/>
      <point x="214" y="179" type="line"/>
      <point x="199" y="179"/>
      <point x="186" y="180"/>
      <point x="172" y="183" type="curve"/>
      <point x="172" y="0" type="line"/>
    </contour>
    <contour>
      <point x="256" y="179" type="curve"/>
      <point x="256" y="300" type="line"/>
      <point x="289" y="300"/>
      <point x="298" y="313"/>
      <point x="298" y="326" type="curve" smooth="yes"/>
      <point x="298" y="698" type="line"/>
      <point x="298" y="700" type="line"/>
      <point x="422" y="700" type="line"/>
      <point x="422" y="698" type="line"/>
      <point x="422" y="328" type="line" smooth="yes"/>
      <point x="422" y="319"/>
      <point x="428" y="302"/>
      <point x="464" y="302" type="curve"/>
      <point x="464" y="181" type="line"/>
      <point x="421" y="181"/>
      <point x="388" y="193"/>
      <point x="361" y="213" type="curve"/>
      <point x="333" y="192"/>
      <point x="300" y="179"/>
    </contour>
  </outline>
</glyph>
<glyph name="cedilla" format="1">
  <advance width="426"/>
  <unicode hex="00B8"/>
  <outline>
    <contour>
      <point x="123" y="-36" type="curve"/>
      <point x="123" y="55" type="line"/>
      <point x="159" y="55"/>
      <point x="199" y="68"/>
      <point x="199" y="123" type="curve"/>
      <point x="291" y="123" type="line"/>
      <point x="291" y="47"/>
      <point x="250" y="-36"/>
    </contour>
  </outline>
</glyph>
<glyph name="oslash" format="1">
  <advance width="498"/>
  <unicode hex="00F8"/>
  <outline>
    <contour>
      <point x="0" y="82" type="line"/>
      <point x="67" y="143" type="line"/>
      <point x="67" y="153" type="line" smooth="yes"/>
      <point x="67" y="376" type="line" smooth="yes"/>
      <point x="67" y="425"/>
      <point x="121" y="516"/>
      <point x="231" y="516" type="curve"/>
      <point x="231" y="398" type="line"/>
      <point x="195" y="398"/>
      <point x="187" y="377"/>
      <point x="187" y="363" type="curve" smooth="yes"/>
      <point x="187" y="253" type="line"/>
      <point x="314" y="370" type="line"/>
      <point x="312" y="387"/>
      <point x="301" y="398"/>
      <point x="272" y="398" type="curve"/>
      <point x="272" y="516" type="line"/>
      <point x="334" y="516"/>
      <point x="376" y="488"/>
      <point x="402" y="451" type="curve"/>
      <point x="445" y="490" type="line"/>
      <point x="498" y="430" type="line"/>
      <point x="431" y="369" type="line"/>
      <point x="431" y="358" type="line" smooth="yes"/>
      <point x="431" y="141" type="line" smooth="yes"/>
      <point x="431" y="92"/>
      <point x="380" y="-1"/>
      <point x="272" y="-1" type="curve"/>
      <point x="272" y="117" type="line"/>
      <point x="306" y="117"/>
      <point x="314" y="138"/>
      <point x="314" y="152" type="curve" smooth="yes"/>
      <point x="314" y="261" type="line"/>
      <point x="188" y="145" type="line"/>
      <point x="190" y="127"/>
      <point x="203" y="117"/>
      <point x="231" y="117" type="curve"/>
      <point x="231" y="-1" type="line"/>
      <point x="167" y="-1"/>
      <point x="125" y="27"/>
      <point x="98" y="63" type="curve"/>
      <point x="53" y="22" type="line"/>
    </contour>
  </outline>
</glyph>
<glyph name="uni02C9" format="1">
  <advance width="416"/>
  <unicode hex="02C9"/>
  <outline>
    <contour>
      <point x="50" y="514" type="line"/>
      <point x="50" y="596" type="line"/>
      <point x="366" y="596" type="line"/>
      <point x="366" y="514" type="line"/>
    </contour>
  </outline>
</glyph>
<glyph name="tml_Visarga" format="1">
  <unicode hex="0B83"/>
  <outline>
    <contour>
      <point x="39" y="117" type="curve" smooth="yes"/>
      <point x="39" y="184"/>
      <point x="93" y="238"/>
      <point x="160" y="238" type="curve" smooth="yes"/>
      <point x="227" y="238"/>
      <point x="281" y="184"/>
      <point x="281" y="117" type="curve" smooth="yes"/>
      <point x="281" y="50"/>
      <point x="227" y="-4"/>
      <point x="160" y="-4" type="curve" smooth="yes"/>
      <point x="93" y="-4"/>
      <point x="39" y="50"/>
    </contour>
    <contour>
      <point x="525" y="121" type="curve" smooth="yes"/>
      <point x="525" y="188"/>
      <point x="579" y="242"/>
      <point x="646" y="242" type="curve" smooth="yes"/>
      <point x="713" y="242"/>
      <point x="767" y="188"/>
      <point x="767" y="121" type="curve" smooth="yes"/>
      <point x="767" y="54"/>
      <point x="713" y="0"/>
      <point x="646" y="0" type="curve" smooth="yes"/>
      <point x="579" y="0"/>
      <point x="525" y="54"/>
    </contour>
    <contour>
      <point x="281" y="489" type="curve" smooth="yes"/>
      <point x="281" y="556"/>
      <point x="335" y="610"/>
      <point x="402" y="610" type="curve" smooth="yes"/>
      <point x="469" y="610"/>
      <point x="522" y="556"/>
      <point x="522" y="489" type="curve" smooth="yes"/>
      <point x="522" y="422"/>
      <point x="469" y="368"/>
      <point x="402" y="368" type="curve" smooth="yes"/>
      <point x="335" y="368"/>
      <point x="281" y="422"/>
    </contour>
  </outline>
</glyph>
<glyph name="tml_Ka" format="1">
  <advance width="818"/>
  <unicode hex="0B95"/>
  <outline>
    <contour>
      <point x="331" y="-11" type="curve"/>
      <point x="331" y="112" type="line"/>
      <point x="397" y="112"/>
      <point x="428" y="141"/>
      <point x="428" y="187" type="curve" smooth="yes"/>
      <point x="428" y="541" type="line"/>
      <point x="550" y="541" type="line"/>
      <point x="550" y="191" type="line" smooth="yes"/>
      <point x="550" y="95"/>
      <point x="498" y="-11"/>
    </contour>
    <contour>
      <point x="173" y="348" type="line"/>
      <point x="173" y="539" type="line"/>
      <point x="296" y="539" type="line"/>
      <point x="295" y="348" type="line"/>
    </contour>
    <contour>
      <point x="389" y="470" type="line"/>
      <point x="389" y="595" type="line"/>
      <point x="682" y="595" type="line"/>
      <point x="682" y="470" type="line"/>
    </contour>
    <contour>
      <point x="173" y="470" type="line"/>
      <point x="173" y="595" type="line"/>
      <point x="335" y="595" type="line"/>
      <point x="335" y="470" type="line"/>
    </contour>
    <contour>
      <point x="48" y="157" type="curve" smooth="yes"/>
      <point x="48" y="240" type="line" smooth="yes"/>
      <point x="48" y="347"/>
      <point x="140" y="371"/>
      <point x="226" y="371" type="curve" smooth="yes"/>
      <point x="603" y="371" type="line" smooth="yes"/>
      <point x="709" y="371"/>
      <point x="786" y="350"/>
      <point x="786" y="236" type="curve" smooth="yes"/>
      <point x="786" y="156" type="line" smooth="yes"/>
      <point x="786" y="60"/>
      <point x="703" y="2"/>
      <point x="569" y="2" type="curve"/>
      <point x="571" y="126" type="line" smooth="yes"/>
      <point x="647" y="126"/>
      <point x="664" y="129"/>
      <point x="664" y="185" type="curve" smooth="yes"/>
      <point x="664" y="239"/>
      <point x="652" y="249"/>
      <point x="611" y="249" type="curve" smooth="yes"/>
      <point x="229" y="249" type="line" smooth="yes"/>
      <point x="181" y="249"/>
      <point x="169" y="239"/>
      <point x="169" y="188" type="curve" smooth="yes"/>
      <point x="169" y="127"/>
      <point x="188" y="112"/>
      <point x="277" y="112" type="curve"/>
      <point x="277" y="-11" type="line"/>
      <point x="120" y="-11"/>
      <point x="48" y="68"/>
    </contour>
  </outline>
</glyph>
<glyph name="tml_Ma" format="1">
  <advance width="663"/>
  <unicode hex="0BAE"/>
  <outline>
    <contour>
      <point x="459" y="0" type="curve" smooth="yes"/>
      <point x="459" y="123" type="line"/>
      <point x="499" y="123"/>
      <point x="502" y="157"/>
      <point x="502" y="179" type="curve" smooth="yes"/>
      <point x="502" y="434" type="line" smooth="yes"/>
      <point x="502" y="457"/>
      <point x="500" y="483"/>
      <point x="459" y="483" type="curve"/>
      <point x="459" y="605" type="line"/>
      <point x="547" y="605"/>
      <point x="624" y="564"/>
      <point x="624" y="434" type="curve" smooth="yes"/>
      <point x="624" y="197" type="line" smooth="yes"/>
      <point x="624" y="51"/>
      <point x="540" y="0"/>
    </contour>
    <contour>
      <point x="243" y="122" type="line" smooth="yes"/>
      <point x="243" y="434" type="line" smooth="yes"/>
      <point x="242" y="571"/>
      <point x="324" y="605"/>
      <point x="405" y="605" type="curve"/>
      <point x="405" y="483" type="line"/>
      <point x="371" y="483"/>
      <point x="365" y="459"/>
      <point x="365" y="434" type="curve" smooth="yes"/>
      <point x="365" y="122" type="line"/>
    </contour>
    <contour>
      <point x="39" y="107" type="line"/>
      <point x="39" y="595" type="line"/>
      <point x="161" y="595" type="line"/>
      <point x="161" y="107" type="line"/>
    </contour>
    <contour>
      <point x="39" y="0" type="line"/>
      <point x="39" y="123" type="line"/>
      <point x="405" y="123" type="line"/>
      <point x="405" y="0" type="line"/>
    </contour>
  </outline>
</glyph>
<glyph name="tml_Rra" format="1">
  <advance width="732"/>
  <unicode hex="0BB1"/>
  <outline>
    <contour>
      <point x="39" y="-256" type="curve"/>
      <point x="161" y="-256" type="line"/>
      <point x="161" y="-176"/>
      <point x="190" y="-155"/>
      <point x="237" y="-155" type="curve" smooth="yes"/>
      <point x="498" y="-155" type="line" smooth="yes"/>
      <point x="637" y="-153"/>
      <point x="691" y="-41"/>
      <point x="691" y="64" type="curve" smooth="yes"/>
      <point x="691" y="475" type="line" smooth="yes"/>
      <point x="691" y="530"/>
      <point x="640" y="606"/>
      <point x="527" y="606" type="curve"/>
      <point x="527" y="484" type="line"/>
      <point x="549" y="484"/>
      <point x="569" y="481"/>
      <point x="569" y="460" type="curve" smooth="yes"/>
      <point x="569" y="47" type="line" smooth="yes"/>
      <point x="569" y="16"/>
      <point x="570" y="-33"/>
      <point x="472" y="-33" type="curve" smooth="yes"/>
      <point x="233" y="-33" type="line" smooth="yes"/>
      <point x="91" y="-33"/>
      <point x="39" y="-114"/>
    </contour>
    <contour>
      <point x="70" y="0" type="line"/>
      <point x="70" y="479" type="line" smooth="yes"/>
      <point x="70" y="529"/>
      <point x="111" y="606"/>
      <point x="223" y="606" type="curve"/>
      <point x="223" y="483" type="line"/>
      <point x="198" y="483"/>
      <point x="192" y="471"/>
      <point x="192" y="458" type="curve" smooth="yes"/>
      <point x="194" y="1" type="line"/>
    </contour>
    <contour>
      <point x="276" y="483" type="curve"/>
      <point x="276" y="606" type="line"/>
      <point x="322" y="606"/>
      <point x="352" y="597"/>
      <point x="376" y="576" type="curve"/>
      <point x="404" y="599"/>
      <point x="437" y="606"/>
      <point x="476" y="606" type="curve"/>
      <point x="476" y="484" type="line"/>
      <point x="458" y="484"/>
      <point x="436" y="481"/>
      <point x="436" y="459" type="curve" smooth="yes"/>
      <point x="438" y="2" type="line"/>
      <point x="316" y="1" type="line"/>
      <point x="314" y="458" type="line" smooth="yes"/>
      <point x="314" y="472"/>
      <point x="302" y="483"/>
    </contour>
  </outline>
</glyph>
<glyph name="tml_MatraI" format="1">
  <unicode hex="0BBF"/>
  <outline>
    <contour>
      <point x="643" y="678" type="curve"/>
      <point x="643" y="800" type="line"/>
      <point x="825" y="800"/>
      <point x="858" y="684"/>
      <point x="858" y="582" type="curve" smooth="yes"/>
      <point x="858" y="69" type="line"/>
      <point x="736" y="69" type="line"/>
      <point x="736" y="579" type="line" smooth="yes"/>
      <point x="736" y="641"/>
      <point x="709" y="678"/>
    </contour>
    <contour>
      <point x="382" y="580" type="line"/>
      <point x="382" y="580" type="line"/>
      <point x="382" y="684"/>
      <point x="421" y="800"/>
      <point x="589" y="800" type="curve" smooth="yes"/>
      <point x="589" y="800" type="line"/>
      <point x="589" y="678" type="line" smooth="yes"/>
      <point x="589" y="678" type="line" smooth="yes"/>
      <point x="528" y="678"/>
      <point x="505" y="641"/>
      <point x="505" y="580" type="curve" smooth="yes"/>
    </contour>
  </outline>
</glyph>
<glyph name="tml_MatraIi" format="1">
  <unicode hex="0BC0"/>
  <outline>
    <contour>
      <point x="491" y="410" type="line"/>
      <point x="303" y="564"/>
      <point x="350" y="918"/>
      <point x="585" y="918" type="curve" smooth="yes"/>
      <point x="660" y="917"/>
      <point x="763" y="885"/>
      <point x="763" y="756" type="curve" smooth="yes"/>
      <point x="763" y="662"/>
      <point x="686" y="601"/>
      <point x="620" y="601" type="curve" smooth="yes"/>
      <point x="557" y="601"/>
      <point x="506" y="652"/>
      <point x="502" y="673" type="curve"/>
      <point x="573" y="756" type="line" smooth="yes"/>
      <point x="573" y="740"/>
      <point x="582" y="723"/>
      <point x="607" y="723" type="curve" smooth="yes"/>
      <point x="630" y="723"/>
      <point x="641" y="741"/>
      <point x="641" y="755" type="curve" smooth="yes"/>
      <point x="641" y="793"/>
      <point x="608" y="796"/>
      <point x="585" y="796" type="curve"/>
      <point x="452" y="785"/>
      <point x="478" y="547"/>
      <point x="645" y="423" type="curve"/>
    </contour>
  </outline>
</glyph>
<glyph name="tml_MatraEe" format="1">
  <advance width="621"/>
  <unicode hex="0BC7"/>
  <outline>
    <contour>
      <point x="413" y="346" type="curve"/>
      <point x="413" y="468" type="line"/>
      <point x="454" y="468"/>
      <point x="460" y="495"/>
      <point x="459" y="526" type="curve" smooth="yes"/>
      <point x="458" y="553"/>
      <point x="455" y="582"/>
      <point x="413" y="582" type="curve"/>
      <point x="413" y="705" type="line" smooth="yes"/>
      <point x="509" y="705"/>
      <point x="582" y="621"/>
      <point x="582" y="569" type="curve" smooth="yes"/>
      <point x="582" y="498" type="line" smooth="yes"/>
      <point x="583" y="435"/>
      <point x="522" y="346"/>
    </contour>
    <contour>
      <point x="187" y="497" type="curve" smooth="yes"/>
      <point x="187" y="539"/>
      <point x="188" y="486"/>
      <point x="187" y="566" type="curve" smooth="yes"/>
      <point x="186" y="670"/>
      <point x="308" y="705"/>
      <point x="358" y="705" type="curve"/>
      <point x="358" y="582" type="line" smooth="yes"/>
      <point x="329" y="582"/>
      <point x="311" y="555"/>
      <point x="311" y="526" type="curve" smooth="yes"/>
      <point x="311" y="494"/>
      <point x="325" y="468"/>
      <point x="358" y="468" type="curve"/>
      <point x="358" y="346" type="line" smooth="yes"/>
      <point x="256" y="346"/>
      <point x="187" y="437"/>
    </contour>
    <contour>
      <point x="413" y="-42" type="curve"/>
      <point x="413" y="80" type="line"/>
      <point x="454" y="80"/>
      <point x="460" y="107"/>
      <point x="459" y="138" type="curve" smooth="yes"/>
      <point x="458" y="165"/>
      <point x="455" y="194"/>
      <point x="413" y="194" type="curve"/>
      <point x="413" y="317" type="line" smooth="yes"/>
      <point x="509" y="317"/>
      <point x="582" y="233"/>
      <point x="582" y="181" type="curve" smooth="yes"/>
      <point x="582" y="110" type="line" smooth="yes"/>
      <point x="583" y="47"/>
      <point x="522" y="-42"/>
    </contour>
    <contour>
      <point x="187" y="109" type="curve" smooth="yes"/>
      <point x="187" y="151"/>
      <point x="188" y="98"/>
      <point x="187" y="178" type="curve" smooth="yes"/>
      <point x="186" y="282"/>
      <point x="308" y="317"/>
      <point x="358" y="317" type="curve"/>
      <point x="358" y="194" type="line" smooth="yes"/>
      <point x="329" y="194"/>
      <point x="311" y="167"/>
      <point x="311" y="138" type="curve" smooth="yes"/>
      <point x="311" y="106"/>
      <point x="325" y="80"/>
      <point x="358" y="80" type="curve"/>
      <point x="358" y="-42" type="line" smooth="yes"/>
      <point x="256" y="-42"/>
      <point x="187" y="49"/>
    </contour>
    <contour>
      <point x="39" y="195" type="curve"/>
      <point x="39" y="466" type="line"/>
      <point x="39" y="676"/>
      <point x="281" y="705"/>
      <point x="354" y="705" type="curve" smooth="yes"/>
      <point x="354" y="584" type="line"/>
      <point x="299" y="582"/>
      <point x="160" y="571"/>
      <point x="160" y="462" type="curve" smooth="yes"/>
      <point x="160" y="208" type="line" smooth="yes"/>
      <point x="160" y="113"/>
      <point x="306" y="79"/>
      <point x="356" y="79" type="curve"/>
      <point x="356" y="-42" type="line" smooth="yes"/>
      <point x="351" y="-42" type="line" smooth="yes"/>
      <point x="255" y="-42"/>
      <point x="39" y="-5"/>
    </contour>
  </outline>
</glyph>
<glyph name="anusvara" format="1">
  <advance width="469"/>
  <unicode hex="0D82"/>
  <outline>
    <contour>
      <point x="259" y="45" type="line" smooth="yes"/>
      <point x="259" y="175" type="line" smooth="yes"/>
      <point x="299" y="175"/>
      <point x="304" y="209"/>
      <point x="304" y="248" type="curve"/>
      <point x="304" y="311" type="line"/>
      <point x="304" y="350"/>
      <point x="299" y="384"/>
      <point x="259" y="384" type="curve" smooth="yes"/>
      <point x="259" y="514" type="line" smooth="yes"/>
      <point x="280" y="514" type="line" smooth="yes"/>
      <point x="426" y="514"/>
      <point x="439" y="369"/>
      <point x="439" y="311" type="curve" smooth="yes"/>
      <point x="439" y="248" type="line"/>
      <point x="439" y="190"/>
      <point x="426" y="45"/>
      <point x="280" y="45" type="curve"/>
    </contour>
    <contour>
      <point x="30" y="248" type="line" smooth="yes"/>
      <point x="30" y="190"/>
      <point x="43" y="45"/>
      <point x="188" y="45" type="curve" smooth="yes"/>
      <point x="209" y="45" type="line"/>
      <point x="209" y="175" type="line"/>
      <point x="170" y="175"/>
      <point x="165" y="209"/>
      <point x="165" y="248" type="curve" smooth="yes"/>
      <point x="165" y="311" type="line" smooth="yes"/>
      <point x="165" y="350"/>
      <point x="170" y="384"/>
      <point x="209" y="384" type="curve" smooth="yes"/>
      <point x="209" y="514" type="line" smooth="yes"/>
      <point x="188" y="514" type="line"/>
      <point x="43" y="514"/>
      <point x="30" y="369"/>
      <point x="30" y="311" type="curve"/>
    </contour>
  </outline>
</glyph>
<glyph name="si_U" format="1">
  <advance width="544"/>
  <unicode hex="0D8B"/>
  <outline>
    <contour>
      <point x="324" y="-28" type="curve"/>
      <point x="324" y="-168" type="line"/>
      <point x="423" y="-168"/>
      <point x="540" y="-135"/>
      <point x="569" y="4" type="curve"/>
      <point x="434" y="42" type="line"/>
      <point x="421" y="-8"/>
      <point x="378" y="-28"/>
    </contour>
    <contour>
      <point x="30" y="85" type="curve" smooth="yes"/>
      <point x="30" y="133" type="line" smooth="yes"/>
      <point x="30" y="247"/>
      <point x="61" y="399"/>
      <point x="268" y="398" type="curve" smooth="yes"/>
      <point x="327" y="397" type="line" smooth="yes"/>
      <point x="384" y="397" type="line"/>
      <point x="384" y="446"/>
      <point x="330" y="454"/>
      <point x="312" y="454" type="curve" smooth="yes"/>
      <point x="297" y="454"/>
      <point x="254" y="454"/>
      <point x="243" y="420" type="curve"/>
      <point x="128" y="464" type="line"/>
      <point x="148" y="539"/>
      <point x="233" y="575"/>
      <point x="312" y="575" type="curve" smooth="yes"/>
      <point x="420" y="575"/>
      <point x="513" y="520"/>
      <point x="513" y="385" type="curve"/>
      <point x="513" y="257" type="line"/>
      <point x="327" y="257" type="line" smooth="yes"/>
      <point x="268" y="257" type="line" smooth="yes"/>
      <point x="189" y="257"/>
      <point x="171" y="209"/>
      <point x="171" y="133" type="curve" smooth="yes"/>
      <point x="171" y="85" type="line" smooth="yes"/>
      <point x="171" y="-16"/>
      <point x="245" y="-26"/>
      <point x="268" y="-28" type="curve"/>
      <point x="268" y="-169" type="line"/>
      <point x="164" y="-169"/>
      <point x="30" y="-83"/>
    </contour>
  </outline>
</glyph>
<glyph name="si_vocalicL" format="1">
  <advance width="978"/>
  <unicode hex="0D8F"/>
  <outline>
    <contour>
      <point x="45" y="88" type="curve" smooth="yes"/>
      <point x="45" y="140"/>
      <point x="87" y="182"/>
      <point x="139" y="182" type="curve" smooth="yes"/>
      <point x="191" y="182"/>
      <point x="233" y="140"/>
      <point x="233" y="88" type="curve" smooth="yes"/>
      <point x="233" y="36"/>
      <point x="191" y="-6"/>
      <point x="139" y="-6" type="curve" smooth="yes"/>
      <point x="87" y="-6"/>
      <point x="45" y="36"/>
    </contour>
    <contour>
      <point x="30" y="251" type="line"/>
      <point x="30" y="332" type="line" smooth="yes"/>
      <point x="30" y="497"/>
      <point x="164" y="616"/>
      <point x="321" y="556" type="curve"/>
      <point x="321" y="422" type="line"/>
      <point x="298" y="430" type="line" smooth="yes"/>
      <point x="258" y="443"/>
      <point x="161" y="456"/>
      <point x="161" y="307" type="curve" smooth="yes"/>
      <point x="161" y="251" type="line"/>
    </contour>
    <contour>
      <point x="161" y="202" type="line"/>
      <point x="161" y="155"/>
      <point x="168" y="122"/>
      <point x="178" y="86" type="curve"/>
      <point x="53" y="50" type="line"/>
      <point x="34" y="94"/>
      <point x="30" y="139"/>
      <point x="30" y="202" type="curve"/>
    </contour>
    <contour>
      <point x="933" y="88" type="curve" smooth="yes"/>
      <point x="933" y="36"/>
      <point x="891" y="-6"/>
      <point x="839" y="-6" type="curve" smooth="yes"/>
      <point x="787" y="-6"/>
      <point x="745" y="36"/>
      <point x="745" y="88" type="curve" smooth="yes"/>
      <point x="745" y="140"/>
      <point x="787" y="182"/>
      <point x="839" y="182" type="curve" smooth="yes"/>
      <point x="891" y="182"/>
      <point x="933" y="140"/>
    </contour>
    <contour>
      <point x="948" y="251" type="line"/>
      <point x="817" y="251" type="line"/>
      <point x="817" y="307" type="line" smooth="yes"/>
      <point x="817" y="456"/>
      <point x="720" y="443"/>
      <point x="680" y="430" type="curve" smooth="yes"/>
      <point x="657" y="422" type="line"/>
      <point x="657" y="556" type="line"/>
      <point x="814" y="616"/>
      <point x="948" y="497"/>
      <point x="948" y="332" type="curve" smooth="yes"/>
    </contour>
    <contour>
      <point x="817" y="202" type="curve"/>
      <point x="948" y="202" type="line"/>
      <point x="948" y="139"/>
      <point x="944" y="94"/>
      <point x="925" y="50" type="curve"/>
      <point x="800" y="86" type="line"/>
      <point x="810" y="122"/>
      <point x="817" y="155"/>
    </contour>
    <component base="si_Pa" xOffset="175"/>
  </outline>
</glyph>
<glyph name="si_MatraAa" format="1">
  <advance width="277"/>
  <unicode hex="0DCF"/>
  <outline>
    <contour>
      <point x="30" y="0" type="line" smooth="yes"/>
      <point x="50" y="0" type="line"/>
      <point x="189" y="0"/>
      <point x="247" y="90"/>
      <point x="247" y="206" type="curve"/>
      <point x="247" y="368" type="line"/>
      <point x="247" y="484"/>
      <point x="189" y="574"/>
      <point x="50" y="574" type="curve"/>
      <point x="30" y="574" type="line" smooth="yes"/>
      <point x="30" y="431" type="line" smooth="yes"/>
      <point x="50" y="431" type="line"/>
      <point x="102" y="431"/>
      <point x="106" y="386"/>
      <point x="106" y="358" type="curve"/>
      <point x="106" y="206" type="line"/>
      <point x="106" y="182"/>
      <point x="102" y="143"/>
      <point x="50" y="143" type="curve"/>
      <point x="30" y="143" type="line" smooth="yes"/>
    </contour>
  </outline>
</glyph>
<glyph name="si_MatraAe" format="1">
  <advance width="277"/>
  <unicode hex="0DD0"/>
  <outline>
    <contour>
      <point x="30" y="208" type="curve" smooth="yes"/>
      <point x="30" y="260" type="line" smooth="yes"/>
      <point x="30" y="329"/>
      <point x="37" y="343"/>
      <point x="90" y="436" type="curve"/>
      <point x="30" y="436" type="line"/>
      <point x="30" y="574" type="line" smooth="yes"/>
      <point x="247" y="574" type="line" smooth="yes"/>
      <point x="247" y="442" type="line" smooth="yes"/>
      <point x="180" y="318"/>
      <point x="171" y="315"/>
      <point x="171" y="248" type="curve"/>
      <point x="171" y="202" type="line"/>
      <point x="171" y="153"/>
      <point x="202" y="143"/>
      <point x="226" y="143" type="curve"/>
      <point x="235" y="143"/>
      <point x="243" y="143"/>
      <point x="247" y="143" type="curve"/>
      <point x="247" y="0" type="line"/>
      <point x="240" y="0"/>
      <point x="232" y="0"/>
      <point x="225" y="0" type="curve" smooth="yes"/>
      <point x="118" y="0"/>
      <point x="30" y="58"/>
    </contour>
  </outline>
</glyph>
<glyph name="si_MatraI" format="1">
  <advance width="583"/>
  <unicode hex="0DD2"/>
  <outline>
    <contour>
      <point x="30" y="602" type="line"/>
      <point x="30" y="630" type="line"/>
      <point x="30" y="723"/>
      <point x="107" y="789"/>
      <point x="206" y="789" type="curve"/>
      <point x="377" y="789" type="line"/>
      <point x="476" y="789"/>
      <point x="553" y="723"/>
      <point x="553" y="630" type="curve"/>
      <point x="553" y="602" type="line"/>
      <point x="423" y="602" type="line"/>
      <point x="423" y="654"/>
      <point x="388" y="658"/>
      <point x="361" y="659" type="curve"/>
      <point x="222" y="659" type="line"/>
      <point x="195" y="658"/>
      <point x="160" y="654"/>
      <point x="160" y="602" type="curve"/>
    </contour>
  </outline>
</glyph>
<glyph name="si_MatraU" format="1">
  <advance width="498"/>
  <unicode hex="0DD4"/>
  <outline>
    <contour>
      <point x="328" y="123" type="line"/>
      <point x="328" y="-205" type="line"/>
      <point x="468" y="-205" type="line"/>
      <point x="468" y="123" type="line"/>
    </contour>
    <contour>
      <point x="258" y="-65" type="line"/>
      <point x="258" y="-205" type="line"/>
      <point x="338" y="-205" type="line"/>
      <point x="338" y="-65" type="line"/>
    </contour>
    <contour>
      <point x="20" y="-65" type="line"/>
      <point x="202" y="-65" type="line"/>
      <point x="202" y="-205" type="line"/>
      <point x="20" y="-205" type="line"/>
    </contour>
  </outline>
</glyph>
<glyph name="si_MatraUu" format="1">
  <advance width="516"/>
  <unicode hex="0DD6"/>
  <outline>
    <contour>
      <point x="32" y="-39" type="line"/>
      <point x="58" y="-58"/>
      <point x="81" y="-65"/>
      <point x="103" y="-65" type="curve" smooth="yes"/>
      <point x="145" y="-65"/>
      <point x="181" y="-42"/>
      <point x="220" y="-42" type="curve"/>
      <point x="220" y="-182" type="line"/>
      <point x="181" y="-182"/>
      <point x="145" y="-205"/>
      <point x="103" y="-205" type="curve" smooth="yes"/>
      <point x="81" y="-205"/>
      <point x="58" y="-198"/>
      <point x="32" y="-179" type="curve"/>
    </contour>
    <contour>
      <point x="346" y="123" type="line"/>
      <point x="346" y="-205" type="line"/>
      <point x="486" y="-205" type="line"/>
      <point x="486" y="123" type="line"/>
    </contour>
    <contour>
      <point x="276" y="-42" type="curve"/>
      <point x="276" y="-182" type="line"/>
      <point x="297" y="-182"/>
      <point x="320" y="-187"/>
      <point x="346" y="-205" type="curve"/>
      <point x="346" y="-61" type="line"/>
      <point x="323" y="-46"/>
      <point x="293" y="-42"/>
    </contour>
  </outline>
</glyph>
<glyph name="si_MatraE" format="1">
  <advance width="447"/>
  <unicode hex="0DD9"/>
  <outline>
    <contour>
      <point x="249" y="434" type="curve"/>
      <point x="249" y="564" type="line"/>
      <point x="270" y="564" type="line" smooth="yes"/>
      <point x="367" y="564"/>
      <point x="417" y="487"/>
      <point x="424" y="431" type="curve"/>
      <point x="302" y="400" type="line"/>
      <point x="298" y="422"/>
      <point x="278" y="434"/>
    </contour>
    <contour>
      <point x="233" y="224" type="line"/>
      <point x="233" y="354" type="line"/>
      <point x="320" y="354" type="line" smooth="yes"/>
      <point x="379" y="354"/>
      <point x="427" y="335"/>
      <point x="427" y="255" type="curve" smooth="yes"/>
      <point x="427" y="157" type="line" smooth="yes"/>
      <point x="427" y="70"/>
      <point x="374" y="-5"/>
      <point x="288" y="-5" type="curve" smooth="yes"/>
      <point x="257" y="-5" type="line"/>
      <point x="257" y="125" type="line"/>
      <point x="281" y="125"/>
      <point x="292" y="140"/>
      <point x="292" y="164" type="curve" smooth="yes"/>
      <point x="292" y="197" type="line" smooth="yes"/>
      <point x="292" y="223"/>
      <point x="275" y="224"/>
      <point x="248" y="224" type="curve" smooth="yes"/>
    </contour>
    <contour>
      <point x="30" y="198" type="curve" smooth="yes"/>
      <point x="30" y="371" type="line" smooth="yes"/>
      <point x="30" y="449"/>
      <point x="63" y="564"/>
      <point x="208" y="564" type="curve" smooth="yes"/>
      <point x="249" y="564" type="line"/>
      <point x="249" y="434" type="line"/>
      <point x="219" y="434" type="line"/>
      <point x="190" y="434"/>
      <point x="165" y="410"/>
      <point x="165" y="371" type="curve" smooth="yes"/>
      <point x="165" y="198" type="line" smooth="yes"/>
      <point x="165" y="159"/>
      <point x="170" y="125"/>
      <point x="209" y="125" type="curve"/>
      <point x="209" y="-5" type="line"/>
      <point x="188" y="-5" type="line" smooth="yes"/>
      <point x="43" y="-5"/>
      <point x="30" y="140"/>
    </contour>
  </outline>
</glyph>
<glyph name="Euro" format="1">
  <advance width="567"/>
  <unicode hex="20AC"/>
  <outline>
    <contour>
      <point x="50" y="258" type="line"/>
      <point x="50" y="317" type="line"/>
      <point x="99" y="317" type="line"/>
      <point x="99" y="377" type="line"/>
      <point x="50" y="377" type="line"/>
      <point x="50" y="436" type="line"/>
      <point x="99" y="436" type="line"/>
      <point x="99" y="496" type="line" smooth="yes"/>
      <point x="99" y="605"/>
      <point x="182" y="695"/>
      <point x="278" y="698" type="curve"/>
      <point x="278" y="558" type="line"/>
      <point x="250" y="558"/>
      <point x="236" y="539"/>
      <point x="236" y="508" type="curve" smooth="yes"/>
      <point x="236" y="436" type="line"/>
      <point x="408" y="436" type="line"/>
      <point x="408" y="376" type="line"/>
      <point x="236" y="376" type="line"/>
      <point x="236" y="317" type="line"/>
      <point x="408" y="317" type="line"/>
      <point x="408" y="258" type="line"/>
      <point x="236" y="258" type="line"/>
      <point x="236" y="202" type="line" smooth="yes"/>
      <point x="236" y="155"/>
      <point x="254" y="141"/>
      <point x="278" y="141" type="curve"/>
      <point x="278" y="2" type="line"/>
      <point x="177" y="9"/>
      <point x="105" y="90"/>
      <point x="99" y="182" type="curve" smooth="yes"/>
      <point x="99" y="258" type="line"/>
    </contour>
    <contour>
      <point x="338" y="2" type="curve"/>
      <point x="338" y="142" type="line"/>
      <point x="367" y="143"/>
      <point x="381" y="165"/>
      <point x="381" y="199" type="curve" smooth="yes"/>
      <point x="381" y="237" type="line"/>
      <point x="517" y="186" type="line"/>
      <point x="517" y="103"/>
      <point x="427" y="4"/>
    </contour>
    <contour>
      <point x="338" y="558" type="curve"/>
      <point x="338" y="698" type="line"/>
      <point x="447" y="696"/>
      <point x="517" y="617"/>
      <point x="517" y="514" type="curve"/>
      <point x="380" y="463" type="line"/>
      <point x="381" y="512" type="line" smooth="yes"/>
      <point x="381" y="539"/>
      <point x="366" y="558"/>
    </contour>
  </outline>
</glyph>
<glyph name="uni2126" format="1">
  <advance width="432"/>
  <unicode hex="2126"/>
  <outline>
    <contour>
      <point x="25" y="-1" type="line"/>
      <point x="25" y="62" type="line"/>
      <point x="72" y="62" type="line"/>
      <point x="50" y="90"/>
      <point x="40" y="121"/>
      <point x="40" y="141" type="curve" smooth="yes"/>
      <point x="40" y="376" type="line" smooth="yes"/>
      <point x="40" y="426"/>
      <point x="91" y="516"/>
      <point x="204" y="516" type="curve"/>
      <point x="204" y="398" type="line"/>
      <point x="168" y="398"/>
      <point x="160" y="378"/>
      <point x="160" y="363" type="curve" smooth="yes"/>
      <point x="160" y="154" type="line" smooth="yes"/>
      <point x="160" y="131"/>
      <point x="169" y="117"/>
      <point x="204" y="117" type="curve"/>
      <point x="204" y="-1" type="line"/>
    </contour>
    <contour>
      <point x="245" y="-1" type="line"/>
      <point x="245" y="117" type="line"/>
      <point x="279" y="117"/>
      <point x="287" y="138"/>
      <point x="287" y="152" type="curve" smooth="yes"/>
      <point x="287" y="363" type="line" smooth="yes"/>
      <point x="287" y="384"/>
      <point x="278" y="398"/>
      <point x="245" y="398" type="curve"/>
      <point x="245" y="516" type="line"/>
      <point x="354" y="516"/>
      <point x="404" y="425"/>
      <point x="404" y="376" type="curve" smooth="yes"/>
      <point x="404" y="141" type="line" smooth="yes"/>
      <point x="404" y="121"/>
      <point x="394" y="90"/>
      <point x="374" y="62" type="curve"/>
      <point x="419" y="62" type="line"/>
      <point x="419" y="-1" type="line"/>
    </contour>
  </outline>
</glyph>
<glyph name="estimated" format="1">
  <advance width="472"/>
  <unicode hex="212E"/>
  <outline>
    <contour>
      <point x="-3" y="141" type="curve" smooth="yes"/>
      <point x="-3" y="377" type="line"/>
      <point x="-3" y="443"/>
      <point x="82" y="516"/>
      <point x="187" y="516" type="curve"/>
      <point x="187" y="400" type="line"/>
      <point x="157" y="400"/>
      <point x="115" y="393"/>
      <point x="115" y="366" type="curve" smooth="yes"/>
      <point x="115" y="324" type="line"/>
      <point x="302" y="324" type="line"/>
      <point x="302" y="366" type="line" smooth="yes"/>
      <point x="302" y="392"/>
      <point x="258" y="400"/>
      <point x="236" y="400" type="curve"/>
      <point x="236" y="516" type="line"/>
      <point x="310" y="516"/>
      <point x="416" y="453"/>
      <point x="416" y="378" type="curve" smooth="yes"/>
      <point x="416" y="212" type="line"/>
      <point x="115" y="212" type="line"/>
      <point x="115" y="144" type="line" smooth="yes"/>
      <point x="115" y="126"/>
      <point x="158" y="111"/>
      <point x="188" y="111" type="curve"/>
      <point x="188" y="0" type="line"/>
      <point x="81" y="0"/>
      <point x="-3" y="58"/>
    </contour>
    <contour>
      <point x="236" y="0" type="curve"/>
      <point x="236" y="111" type="line"/>
      <point x="275" y="111"/>
      <point x="312" y="132"/>
      <point x="318" y="157" type="curve"/>
      <point x="417" y="120" type="line"/>
      <point x="391" y="56"/>
      <point x="324" y="0"/>
    </contour>
  </outline>
</glyph>
<glyph name="radical" format="1">
  <advance width="560"/>
  <unicode hex="221A"/>
  <outline>
    <contour>
      <point x="6" y="513" type="line"/>
      <point x="181" y="575" type="line"/>
      <point x="359" y="133" type="line"/>
      <point x="488" y="819" type="line"/>
      <point x="554" y="819" type="line"/>
      <point x="403" y="-2" type="line"/>
      <point x="316" y="-2" type="line"/>
      <point x="117" y="494" type="line"/>
      <point x="22" y="461" type="line"/>
    </contour>
  </outline>
</glyph>
<glyph name="si_J.halant" format="1">
  <advance width="626"/>
  <outline>
    <contour>
      <point x="316" y="529" type="line"/>
      <point x="316" y="819" type="line"/>
      <point x="447" y="819" type="line"/>
      <point x="447" y="696" type="line"/>
      <point x="324" y="529" type="line"/>
    </contour>
    <component base="si_Ja"/>
  </outline>
</glyph>
<glyph name="si_KRa" format="1">
  <advance width="800"/>
  <outline>
    <contour>
      <point x="136" y="-47" type="line"/>
      <point x="266" y="-47" type="line"/>
      <point x="266" y="-85"/>
      <point x="370" y="-104"/>
      <point x="428" y="-104" type="curve" smooth="yes"/>
      <point x="493" y="-104"/>
      <point x="621" y="-87"/>
      <point x="621" y="-44" type="curve" smooth="yes"/>
      <point x="621" y="-32"/>
      <point x="620" y="-5"/>
      <point x="574" y="-5" type="curve"/>
      <point x="574" y="115" type="line"/>
      <point x="735" y="115"/>
      <point x="753" y="18"/>
      <point x="753" y="-47" type="curve" smooth="yes"/>
      <point x="753" y="-180"/>
      <point x="566" y="-234"/>
      <point x="429" y="-234" type="curve" smooth="yes"/>
      <point x="306" y="-234"/>
      <point x="136" y="-181"/>
      <point x="136" y="-75" type="curve" smooth="yes"/>
    </contour>
    <component base="si_Ka"/>
  </outline>
</glyph>
<glyph name="si_NTh.halant" format="1">
  <advance width="1078"/>
  <outline>
    <contour>
      <point x="912" y="518" type="line"/>
      <point x="1048" y="518" type="line"/>
      <point x="1048" y="819" type="line"/>
      <point x="912" y="819" type="line"/>
    </contour>
    <component base="si_NTha"/>
  </outline>
</glyph>
<glyph name="si_NUu" format="1">
  <advance width="758"/>
  <outline>
    <contour>
      <point x="120" y="-34" type="line"/>
      <point x="160" y="-59"/>
      <point x="196" y="-68"/>
      <point x="229" y="-68" type="curve" smooth="yes"/>
      <point x="280" y="-68"/>
      <point x="315" y="-34"/>
      <point x="362" y="-34" type="curve"/>
      <point x="362" y="-174" type="line"/>
      <point x="315" y="-174"/>
      <point x="280" y="-205"/>
      <point x="229" y="-205" type="curve" smooth="yes"/>
      <point x="196" y="-205"/>
      <point x="160" y="-197"/>
      <point x="120" y="-174" type="curve"/>
    </contour>
    <contour>
      <point x="568" y="131" type="line"/>
      <point x="708" y="131" type="line"/>
      <point x="708" y="-205" type="line"/>
      <point x="568" y="-205" type="line"/>
    </contour>
    <contour>
      <point x="418" y="-34" type="line"/>
      <point x="447" y="-34"/>
      <point x="529" y="-40"/>
      <point x="568" y="-61" type="curve"/>
      <point x="568" y="-205" type="line"/>
      <point x="524" y="-180"/>
      <point x="454" y="-174"/>
      <point x="418" y="-174" type="curve"/>
    </contour>
    <contour>
      <point x="568" y="131" type="line"/>
      <point x="708" y="131" type="line"/>
      <point x="708" y="-205" type="line"/>
      <point x="568" y="-205" type="line"/>
    </contour>
    <component base="si_Na"/>
  </outline>
</glyph>
<glyph name="si_NV.halant" format="1">
  <advance width="1082"/>
  <outline>
    <contour>
      <point x="820" y="703" type="line"/>
      <point x="820" y="819" type="line"/>
      <point x="866" y="819" type="line" smooth="yes"/>
      <point x="1014" y="819"/>
      <point x="1039" y="756"/>
      <point x="1039" y="673" type="curve"/>
      <point x="904" y="673" type="line"/>
      <point x="904" y="700"/>
      <point x="879" y="703"/>
      <point x="834" y="703" type="curve" smooth="yes"/>
    </contour>
    <contour>
      <point x="588" y="652" type="curve"/>
      <point x="547" y="652"/>
      <point x="507" y="819"/>
      <point x="723" y="819" type="curve" smooth="yes"/>
      <point x="765" y="819" type="line"/>
      <point x="765" y="703" type="line"/>
      <point x="732" y="703" type="line" smooth="yes"/>
      <point x="703" y="703"/>
      <point x="696" y="689"/>
      <point x="696" y="676" type="curve" smooth="yes"/>
      <point x="696" y="662"/>
      <point x="710" y="652"/>
      <point x="732" y="652" type="curve"/>
      <point x="763" y="652" type="line"/>
      <point x="763" y="522" type="line"/>
      <point x="745" y="522" type="line"/>
      <point x="609" y="522"/>
      <point x="588" y="608"/>
    </contour>
    <contour>
      <point x="538" y="522" type="line"/>
      <point x="538" y="652" type="line"/>
      <point x="763" y="652" type="line"/>
      <point x="763" y="522" type="line"/>
    </contour>
    <contour>
      <point x="817" y="-5" type="curve"/>
      <point x="817" y="135" type="line"/>
      <point x="859" y="135"/>
      <point x="911" y="149"/>
      <point x="911" y="250" type="curve" smooth="yes"/>
      <point x="911" y="455" type="line" smooth="yes"/>
      <point x="911" y="514"/>
      <point x="870" y="522"/>
      <point x="821" y="522" type="curve"/>
      <point x="821" y="652" type="line"/>
      <point x="980" y="652"/>
      <point x="1052" y="590"/>
      <point x="1052" y="474" type="curve" smooth="yes"/>
      <point x="1052" y="250" type="line" smooth="yes"/>
      <point x="1052" y="78"/>
      <point x="972" y="-5"/>
    </contour>
    <contour>
      <point x="32" y="439" type="line"/>
      <point x="46" y="537"/>
      <point x="139" y="567"/>
      <point x="200" y="567" type="curve" smooth="yes"/>
      <point x="269" y="567"/>
      <point x="331" y="522"/>
      <point x="331" y="506" type="curve"/>
      <point x="247" y="402" type="line"/>
      <point x="247" y="437"/>
      <point x="216" y="446"/>
      <point x="200" y="446" type="curve" smooth="yes"/>
      <point x="166" y="446"/>
      <point x="149" y="423"/>
      <point x="149" y="402" type="curve"/>
    </contour>
    <contour>
      <point x="125" y="165" type="line"/>
      <point x="125" y="304" type="line" smooth="yes"/>
      <point x="150" y="304" type="line" smooth="yes"/>
      <point x="176" y="304"/>
      <point x="251" y="436"/>
      <point x="283" y="479" type="curve"/>
      <point x="401" y="657"/>
      <point x="831" y="614"/>
      <point x="828" y="339" type="curve"/>
      <point x="828" y="252" type="line"/>
      <point x="744" y="252" type="line" smooth="yes"/>
      <point x="714" y="252"/>
      <point x="685" y="242"/>
      <point x="685" y="195" type="curve" smooth="yes"/>
      <point x="685" y="166"/>
      <point x="708" y="135"/>
      <point x="761" y="135" type="curve"/>
      <point x="761" y="-5" type="line"/>
      <point x="634" y="-5"/>
      <point x="547" y="84"/>
      <point x="547" y="189" type="curve" smooth="yes"/>
      <point x="547" y="265"/>
      <point x="568" y="349"/>
      <point x="686" y="369" type="curve"/>
      <point x="652" y="447"/>
      <point x="577" y="453"/>
      <point x="519" y="453" type="curve" smooth="yes"/>
      <point x="455" y="453"/>
      <point x="402" y="423"/>
      <point x="373" y="384" type="curve" smooth="yes"/>
      <point x="295" y="281" type="line"/>
      <point x="240" y="208"/>
      <point x="202" y="165"/>
      <point x="154" y="165" type="curve"/>
    </contour>
    <contour>
      <point x="30" y="256" type="curve"/>
      <point x="30" y="344" type="line"/>
      <point x="148" y="344" type="line"/>
      <point x="148" y="313"/>
      <point x="148" y="301"/>
      <point x="148" y="270" type="curve" smooth="yes"/>
      <point x="148" y="150"/>
      <point x="209" y="127"/>
      <point x="278" y="127" type="curve" smooth="yes"/>
      <point x="359" y="127"/>
      <point x="389" y="218"/>
      <point x="336" y="251" type="curve"/>
      <point x="412" y="354" type="line"/>
      <point x="569" y="271"/>
      <point x="518" y="-8"/>
      <point x="282" y="-8" type="curve" smooth="yes"/>
      <point x="134" y="-8"/>
      <point x="30" y="85"/>
    </contour>
  </outline>
</glyph>
<glyph name="si_NVIi" format="1">
  <advance width="1082"/>
  <outline>
    <contour>
      <point x="839" y="711" type="curve" smooth="yes"/>
      <point x="839" y="651"/>
      <point x="887" y="603"/>
      <point x="947" y="603" type="curve" smooth="yes"/>
      <point x="1007" y="603"/>
      <point x="1055" y="651"/>
      <point x="1055" y="711" type="curve" smooth="yes"/>
      <point x="1055" y="771"/>
      <point x="1007" y="819"/>
      <point x="947" y="819" type="curve" smooth="yes"/>
      <point x="887" y="819"/>
      <point x="839" y="771"/>
    </contour>
    <contour>
      <point x="817" y="703" type="line"/>
      <point x="947" y="703" type="line"/>
      <point x="947" y="819" type="line"/>
      <point x="817" y="819" type="line"/>
    </contour>
    <contour>
      <point x="703" y="645" type="curve" smooth="yes"/>
      <point x="761" y="645" type="line"/>
      <point x="761" y="522" type="line"/>
      <point x="714" y="522" type="line" smooth="yes"/>
      <point x="478" y="522"/>
      <point x="477" y="819"/>
      <point x="714" y="819" type="curve" smooth="yes"/>
      <point x="761" y="819" type="line"/>
      <point x="761" y="703" type="line"/>
      <point x="703" y="703" type="line" smooth="yes"/>
      <point x="654" y="703"/>
      <point x="654" y="645"/>
    </contour>
    <contour>
      <point x="817" y="-5" type="line"/>
      <point x="972" y="-5"/>
      <point x="1052" y="78"/>
      <point x="1052" y="250" type="curve" smooth="yes"/>
      <point x="1052" y="474" type="line" smooth="yes"/>
      <point x="1052" y="595"/>
      <point x="1001" y="645"/>
      <point x="865" y="645" type="curve" smooth="yes"/>
      <point x="854" y="645"/>
      <point x="829" y="645"/>
      <point x="817" y="645" type="curve"/>
      <point x="817" y="522" type="line"/>
      <point x="870" y="522"/>
      <point x="912" y="514"/>
      <point x="912" y="455" type="curve" smooth="yes"/>
      <point x="912" y="250" type="line" smooth="yes"/>
      <point x="912" y="149"/>
      <point x="859" y="135"/>
      <point x="817" y="135" type="curve"/>
    </contour>
    <contour>
      <point x="32" y="439" type="line"/>
      <point x="46" y="537"/>
      <point x="139" y="567"/>
      <point x="200" y="567" type="curve" smooth="yes"/>
      <point x="269" y="567"/>
      <point x="331" y="522"/>
      <point x="331" y="506" type="curve"/>
      <point x="247" y="402" type="line"/>
      <point x="247" y="437"/>
      <point x="216" y="446"/>
      <point x="200" y="446" type="curve" smooth="yes"/>
      <point x="166" y="446"/>
      <point x="149" y="423"/>
      <point x="149" y="402" type="curve"/>
    </contour>
    <contour>
      <point x="125" y="165" type="line"/>
      <point x="125" y="304" type="line" smooth="yes"/>
      <point x="150" y="304" type="line" smooth="yes"/>
      <point x="176" y="304"/>
      <point x="251" y="436"/>
      <point x="283" y="479" type="curve"/>
      <point x="401" y="657"/>
      <point x="831" y="614"/>
      <point x="828" y="339" type="curve"/>
      <point x="828" y="252" type="line"/>
      <point x="744" y="252" type="line" smooth="yes"/>
      <point x="714" y="252"/>
      <point x="685" y="242"/>
      <point x="685" y="195" type="curve" smooth="yes"/>
      <point x="685" y="166"/>
      <point x="708" y="135"/>
      <point x="761" y="135" type="curve"/>
      <point x="761" y="-5" type="line"/>
      <point x="634" y="-5"/>
      <point x="547" y="84"/>
      <point x="547" y="189" type="curve" smooth="yes"/>
      <point x="547" y="265"/>
      <point x="568" y="349"/>
      <point x="686" y="369" type="curve"/>
      <point x="652" y="447"/>
      <point x="577" y="453"/>
      <point x="519" y="453" type="curve" smooth="yes"/>
      <point x="455" y="453"/>
      <point x="402" y="423"/>
      <point x="373" y="384" type="curve" smooth="yes"/>
      <point x="295" y="281" type="line"/>
      <point x="240" y="208"/>
      <point x="202" y="165"/>
      <point x="154" y="165" type="curve"/>
    </contour>
    <contour>
      <point x="30" y="256" type="curve"/>
      <point x="30" y="344" type="line"/>
      <point x="148" y="344" type="line"/>
      <point x="148" y="313"/>
      <point x="148" y="301"/>
      <point x="148" y="270" type="curve" smooth="yes"/>
      <point x="148" y="150"/>
      <point x="209" y="127"/>
      <point x="278" y="127" type="curve" smooth="yes"/>
      <point x="359" y="127"/>
      <point x="389" y="218"/>
      <point x="336" y="251" type="curve"/>
      <point x="412" y="354" type="line"/>
      <point x="569" y="271"/>
      <point x="518" y="-8"/>
      <point x="282" y="-8" type="curve" smooth="yes"/>
      <point x="134" y="-8"/>
      <point x="30" y="85"/>
    </contour>
  </outline>
</glyph>
<glyph name="si_NVa" format="1">
  <advance width="1082"/>
  <outline>
    <contour>
      <point x="569" y="650" type="curve"/>
      <point x="713" y="603" type="line"/>
      <point x="727" y="613"/>
      <point x="744" y="617"/>
      <point x="761" y="617" type="curve"/>
      <point x="761" y="755" type="line"/>
      <point x="685" y="755"/>
      <point x="607" y="713"/>
    </contour>
    <contour>
      <point x="817" y="-5" type="line"/>
      <point x="972" y="-5"/>
      <point x="1052" y="78"/>
      <point x="1052" y="250" type="curve" smooth="yes"/>
      <point x="1052" y="520" type="line" smooth="yes"/>
      <point x="1052" y="700"/>
      <point x="951" y="755"/>
      <point x="817" y="755" type="curve"/>
      <point x="817" y="616" type="line"/>
      <point x="895" y="616"/>
      <point x="912" y="577"/>
      <point x="912" y="498" type="curve" smooth="yes"/>
      <point x="912" y="250" type="line" smooth="yes"/>
      <point x="912" y="149"/>
      <point x="859" y="135"/>
      <point x="817" y="135" type="curve"/>
    </contour>
    <contour>
      <point x="32" y="439" type="line"/>
      <point x="46" y="537"/>
      <point x="139" y="567"/>
      <point x="200" y="567" type="curve" smooth="yes"/>
      <point x="269" y="567"/>
      <point x="331" y="522"/>
      <point x="331" y="506" type="curve"/>
      <point x="247" y="402" type="line"/>
      <point x="247" y="437"/>
      <point x="216" y="446"/>
      <point x="200" y="446" type="curve" smooth="yes"/>
      <point x="166" y="446"/>
      <point x="149" y="423"/>
      <point x="149" y="402" type="curve"/>
    </contour>
    <contour>
      <point x="125" y="165" type="line"/>
      <point x="125" y="304" type="line" smooth="yes"/>
      <point x="150" y="304" type="line" smooth="yes"/>
      <point x="176" y="304"/>
      <point x="251" y="436"/>
      <point x="283" y="479" type="curve"/>
      <point x="401" y="657"/>
      <point x="831" y="614"/>
      <point x="828" y="339" type="curve"/>
      <point x="828" y="252" type="line"/>
      <point x="744" y="252" type="line" smooth="yes"/>
      <point x="714" y="252"/>
      <point x="685" y="242"/>
      <point x="685" y="195" type="curve" smooth="yes"/>
      <point x="685" y="166"/>
      <point x="708" y="135"/>
      <point x="761" y="135" type="curve"/>
      <point x="761" y="-5" type="line"/>
      <point x="634" y="-5"/>
      <point x="547" y="84"/>
      <point x="547" y="189" type="curve" smooth="yes"/>
      <point x="547" y="265"/>
      <point x="568" y="349"/>
      <point x="686" y="369" type="curve"/>
      <point x="652" y="447"/>
      <point x="577" y="453"/>
      <point x="519" y="453" type="curve" smooth="yes"/>
      <point x="455" y="453"/>
      <point x="402" y="423"/>
      <point x="373" y="384" type="curve" smooth="yes"/>
      <point x="295" y="281" type="line"/>
      <point x="240" y="208"/>
      <point x="202" y="165"/>
      <point x="154" y="165" type="curve"/>
    </contour>
    <contour>
      <point x="30" y="256" type="curve"/>
      <point x="30" y="344" type="line"/>
      <point x="148" y="344" type="line"/>
      <point x="148" y="313"/>
      <point x="148" y="301"/>
      <point x="148" y="270" type="curve" smooth="yes"/>
      <point x="148" y="150"/>
      <point x="209" y="127"/>
      <point x="278" y="127" type="curve" smooth="yes"/>
      <point x="359" y="127"/>
      <point x="389" y="218"/>
      <point x="336" y="251" type="curve"/>
      <point x="412" y="354" type="line"/>
      <point x="569" y="271"/>
      <point x="518" y="-8"/>
      <point x="282" y="-8" type="curve" smooth="yes"/>
      <point x="134" y="-8"/>
      <point x="30" y="85"/>
    </contour>
  </outline>
</glyph>
<glyph name="si_Ndj.halant" format="1">
  <advance width="801"/>
  <outline>
    <contour>
      <point x="490" y="529" type="line"/>
      <point x="490" y="819" type="line"/>
      <point x="621" y="819" type="line"/>
      <point x="621" y="696" type="line"/>
      <point x="498" y="529" type="line"/>
    </contour>
    <component base="si_Ndja"/>
  </outline>
</glyph>
<glyph name="si_TV.halant" format="1">
  <advance width="1078"/>
  <outline>
    <contour>
      <point x="816" y="703" type="line"/>
      <point x="816" y="819" type="line"/>
      <point x="866" y="819" type="line" smooth="yes"/>
      <point x="1014" y="819"/>
      <point x="1039" y="756"/>
      <point x="1039" y="673" type="curve"/>
      <point x="904" y="673" type="line"/>
      <point x="904" y="700"/>
      <point x="879" y="703"/>
      <point x="834" y="703" type="curve" smooth="yes"/>
    </contour>
    <contour>
      <point x="585" y="652" type="curve"/>
      <point x="544" y="652"/>
      <point x="504" y="819"/>
      <point x="720" y="819" type="curve" smooth="yes"/>
      <point x="760" y="819" type="line"/>
      <point x="760" y="703" type="line"/>
      <point x="729" y="703" type="line" smooth="yes"/>
      <point x="700" y="703"/>
      <point x="693" y="689"/>
      <point x="693" y="676" type="curve" smooth="yes"/>
      <point x="693" y="662"/>
      <point x="707" y="652"/>
      <point x="729" y="652" type="curve"/>
      <point x="760" y="652" type="line"/>
      <point x="760" y="522" type="line"/>
      <point x="742" y="522" type="line"/>
      <point x="606" y="522"/>
      <point x="585" y="608"/>
    </contour>
    <contour>
      <point x="535" y="522" type="line"/>
      <point x="535" y="652" type="line"/>
      <point x="760" y="652" type="line"/>
      <point x="760" y="522" type="line"/>
    </contour>
    <contour>
      <point x="816" y="522" type="curve"/>
      <point x="816" y="652" type="line"/>
      <point x="981" y="652"/>
      <point x="1052" y="590"/>
      <point x="1052" y="474" type="curve" smooth="yes"/>
      <point x="1052" y="250" type="line" smooth="yes"/>
      <point x="1052" y="78"/>
      <point x="972" y="-5"/>
      <point x="817" y="-5" type="curve"/>
      <point x="817" y="135" type="line"/>
      <point x="859" y="135"/>
      <point x="911" y="149"/>
      <point x="911" y="250" type="curve" smooth="yes"/>
      <point x="911" y="455" type="line" smooth="yes"/>
      <point x="911" y="514"/>
      <point x="871" y="522"/>
    </contour>
    <contour>
      <point x="30" y="154" type="curve"/>
      <point x="74" y="249" type="line"/>
      <point x="203" y="286"/>
      <point x="190" y="127"/>
      <point x="292" y="127" type="curve" smooth="yes"/>
      <point x="335" y="127"/>
      <point x="373" y="154"/>
      <point x="373" y="194" type="curve" smooth="yes"/>
      <point x="373" y="220"/>
      <point x="362" y="244"/>
      <point x="324" y="260" type="curve"/>
      <point x="421" y="338" type="line"/>
      <point x="493" y="306"/>
      <point x="504" y="236"/>
      <point x="504" y="185" type="curve" smooth="yes"/>
      <point x="504" y="83"/>
      <point x="427" y="-8"/>
      <point x="296" y="-8" type="curve" smooth="yes"/>
      <point x="234" y="-8"/>
      <point x="163" y="25"/>
      <point x="111" y="101" type="curve" smooth="yes"/>
      <point x="90" y="131"/>
      <point x="75" y="166"/>
    </contour>
    <contour>
      <point x="37" y="439" type="line"/>
      <point x="51" y="537"/>
      <point x="144" y="567"/>
      <point x="205" y="567" type="curve" smooth="yes"/>
      <point x="274" y="567"/>
      <point x="336" y="522"/>
      <point x="336" y="506" type="curve"/>
      <point x="252" y="402" type="line"/>
      <point x="252" y="437"/>
      <point x="221" y="446"/>
      <point x="205" y="446" type="curve" smooth="yes"/>
      <point x="171" y="446"/>
      <point x="154" y="423"/>
      <point x="154" y="402" type="curve"/>
    </contour>
    <contour>
      <point x="30" y="154" type="line"/>
      <point x="30" y="259" type="line"/>
      <point x="324" y="498" type="line"/>
      <point x="506" y="641"/>
      <point x="828" y="577"/>
      <point x="828" y="339" type="curve"/>
      <point x="828" y="252" type="line"/>
      <point x="744" y="252" type="line" smooth="yes"/>
      <point x="714" y="252"/>
      <point x="685" y="242"/>
      <point x="685" y="195" type="curve" smooth="yes"/>
      <point x="685" y="166"/>
      <point x="708" y="135"/>
      <point x="761" y="135" type="curve"/>
      <point x="761" y="-5" type="line"/>
      <point x="634" y="-5"/>
      <point x="547" y="84"/>
      <point x="547" y="189" type="curve" smooth="yes"/>
      <point x="547" y="265"/>
      <point x="568" y="349"/>
      <point x="686" y="369" type="curve"/>
      <point x="631" y="479"/>
      <point x="483" y="446"/>
      <point x="391" y="373" type="curve"/>
      <point x="155" y="188" type="line"/>
    </contour>
  </outline>
</glyph>
<glyph name="si_TVa" format="1">
  <advance width="1078"/>
  <outline>
    <contour>
      <point x="569" y="650" type="curve"/>
      <point x="713" y="603" type="line"/>
      <point x="727" y="613"/>
      <point x="744" y="617"/>
      <point x="761" y="617" type="curve"/>
      <point x="761" y="755" type="line"/>
      <point x="685" y="755"/>
      <point x="607" y="713"/>
    </contour>
    <contour>
      <point x="817" y="-5" type="line"/>
      <point x="972" y="-5"/>
      <point x="1052" y="78"/>
      <point x="1052" y="250" type="curve" smooth="yes"/>
      <point x="1052" y="520" type="line" smooth="yes"/>
      <point x="1052" y="700"/>
      <point x="951" y="755"/>
      <point x="817" y="755" type="curve"/>
      <point x="817" y="616" type="line"/>
      <point x="895" y="616"/>
      <point x="912" y="577"/>
      <point x="912" y="498" type="curve" smooth="yes"/>
      <point x="912" y="250" type="line" smooth="yes"/>
      <point x="912" y="149"/>
      <point x="859" y="135"/>
      <point x="817" y="135" type="curve"/>
    </contour>
    <contour>
      <point x="30" y="154" type="curve"/>
      <point x="74" y="249" type="line"/>
      <point x="203" y="286"/>
      <point x="190" y="127"/>
      <point x="292" y="127" type="curve" smooth="yes"/>
      <point x="335" y="127"/>
      <point x="373" y="154"/>
      <point x="373" y="194" type="curve" smooth="yes"/>
      <point x="373" y="220"/>
      <point x="362" y="244"/>
      <point x="324" y="260" type="curve"/>
      <point x="421" y="338" type="line"/>
      <point x="493" y="306"/>
      <point x="504" y="236"/>
      <point x="504" y="185" type="curve" smooth="yes"/>
      <point x="504" y="83"/>
      <point x="427" y="-8"/>
      <point x="296" y="-8" type="curve" smooth="yes"/>
      <point x="234" y="-8"/>
      <point x="163" y="25"/>
      <point x="111" y="101" type="curve" smooth="yes"/>
      <point x="90" y="131"/>
      <point x="75" y="166"/>
    </contour>
    <contour>
      <point x="37" y="439" type="line"/>
      <point x="51" y="537"/>
      <point x="144" y="567"/>
      <point x="205" y="567" type="curve" smooth="yes"/>
      <point x="274" y="567"/>
      <point x="336" y="522"/>
      <point x="336" y="506" type="curve"/>
      <point x="252" y="402" type="line"/>
      <point x="252" y="437"/>
      <point x="221" y="446"/>
      <point x="205" y="446" type="curve" smooth="yes"/>
      <point x="171" y="446"/>
      <point x="154" y="423"/>
      <point x="154" y="402" type="curve"/>
    </contour>
    <contour>
      <point x="30" y="154" type="line"/>
      <point x="30" y="259" type="line"/>
      <point x="324" y="498" type="line"/>
      <point x="506" y="641"/>
      <point x="828" y="577"/>
      <point x="828" y="339" type="curve"/>
      <point x="828" y="252" type="line"/>
      <point x="744" y="252" type="line" smooth="yes"/>
      <point x="714" y="252"/>
      <point x="685" y="242"/>
      <point x="685" y="195" type="curve" smooth="yes"/>
      <point x="685" y="166"/>
      <point x="708" y="135"/>
      <point x="761" y="135" type="curve"/>
      <point x="761" y="-5" type="line"/>
      <point x="634" y="-5"/>
      <point x="547" y="84"/>
      <point x="547" y="189" type="curve" smooth="yes"/>
      <point x="547" y="265"/>
      <point x="568" y="349"/>
      <point x="686" y="369" type="curve"/>
      <point x="631" y="479"/>
      <point x="483" y="446"/>
      <point x="391" y="373" type="curve"/>
      <point x="155" y="188" type="line"/>
    </contour>
  </outline>
</glyph>
<glyph name="si_Th.halant" format="1">
  <advance width="561"/>
  <outline>
    <contour>
      <point x="395" y="518" type="line"/>
      <point x="531" y="518" type="line"/>
      <point x="531" y="819" type="line"/>
      <point x="395" y="819" type="line"/>
    </contour>
    <component base="si_Tha"/>
  </outline>
</glyph>
<glyph name="si_ThIi" format="1">
  <advance width="561"/>
  <outline>
    <contour>
      <point x="20" y="776" type="curve" smooth="yes"/>
      <point x="20" y="709"/>
      <point x="63" y="645"/>
      <point x="148" y="645" type="curve" smooth="yes"/>
      <point x="176" y="645" type="line"/>
      <point x="176" y="755" type="line"/>
      <point x="156" y="755"/>
      <point x="145" y="768"/>
      <point x="145" y="781" type="curve" smooth="yes"/>
      <point x="145" y="793"/>
      <point x="156" y="806"/>
      <point x="176" y="806" type="curve" smooth="yes"/>
      <point x="315" y="806" type="line"/>
      <point x="315" y="750"/>
      <point x="366" y="706"/>
      <point x="423" y="706" type="curve" smooth="yes"/>
      <point x="483" y="706"/>
      <point x="531" y="754"/>
      <point x="531" y="814" type="curve" smooth="yes"/>
      <point x="531" y="874"/>
      <point x="483" y="922"/>
      <point x="423" y="922" type="curve" smooth="yes"/>
      <point x="176" y="922" type="line" smooth="yes"/>
      <point x="70" y="922"/>
      <point x="20" y="848"/>
    </contour>
    <component base="si_Tha"/>
  </outline>
</glyph>
<glyph name="si_TtTth.halant" format="1">
  <advance width="786"/>
  <outline>
    <contour>
      <point x="620" y="518" type="line"/>
      <point x="620" y="819" type="line"/>
      <point x="756" y="819" type="line"/>
      <point x="756" y="518" type="line"/>
    </contour>
    <component base="si_TtTtha"/>
  </outline>
</glyph>
<glyph name="tml_KSsa" format="1">
  <advance width="1028"/>
  <outline>
    <contour>
      <point x="39" y="-130" type="curve" smooth="yes"/>
      <point x="39" y="-153" type="line" smooth="yes"/>
      <point x="39" y="-237"/>
      <point x="118" y="-260"/>
      <point x="163" y="-260" type="curve" smooth="yes"/>
      <point x="490" y="-260" type="line"/>
      <point x="490" y="-167" type="line"/>
      <point x="161" y="-167" type="line" smooth="yes"/>
      <point x="143" y="-167"/>
      <point x="127" y="-160"/>
      <point x="127" y="-139" type="curve" smooth="yes"/>
      <point x="127" y="-119"/>
      <point x="143" y="-108"/>
      <point x="165" y="-108" type="curve"/>
      <point x="187" y="-109"/>
      <point x="199" y="-122"/>
      <point x="199" y="-144" type="curve" smooth="yes"/>
      <point x="287" y="-144" type="line" smooth="yes"/>
      <point x="287" y="-136" type="line" smooth="yes"/>
      <point x="287" y="-63"/>
      <point x="240" y="-16"/>
      <point x="165" y="-16" type="curve"/>
      <point x="94" y="-16"/>
      <point x="39" y="-56"/>
    </contour>
    <contour>
      <point x="544" y="-167" type="line" smooth="yes"/>
      <point x="900" y="-167" type="line" smooth="yes"/>
      <point x="900" y="-114" type="line" smooth="yes"/>
      <point x="834" y="-114" type="line" smooth="yes"/>
      <point x="834" y="-21" type="line"/>
      <point x="906" y="-21" type="line" smooth="yes"/>
      <point x="970" y="-21"/>
      <point x="989" y="-52"/>
      <point x="989" y="-102" type="curve" smooth="yes"/>
      <point x="989" y="-176" type="line" smooth="yes"/>
      <point x="989" y="-228"/>
      <point x="963" y="-260"/>
      <point x="900" y="-260" type="curve" smooth="yes"/>
      <point x="544" y="-260" type="line"/>
    </contour>
    <contour>
      <point x="714" y="-143" type="line"/>
      <point x="714" y="596" type="line"/>
      <point x="838" y="596" type="line"/>
      <point x="838" y="-143" type="line"/>
    </contour>
    <component base="tml_Va" xOffset="3"/>
  </outline>
</glyph>
<glyph name="tml_NgUu" format="1">
  <advance width="1038"/>
  <outline>
    <contour>
      <point x="39" y="-128" type="curve" smooth="yes"/>
      <point x="39" y="-151" type="line" smooth="yes"/>
      <point x="39" y="-235"/>
      <point x="118" y="-258"/>
      <point x="163" y="-258" type="curve" smooth="yes"/>
      <point x="491" y="-258" type="line"/>
      <point x="491" y="-165" type="line"/>
      <point x="161" y="-165" type="line" smooth="yes"/>
      <point x="143" y="-165"/>
      <point x="127" y="-158"/>
      <point x="127" y="-137" type="curve" smooth="yes"/>
      <point x="127" y="-117"/>
      <point x="143" y="-106"/>
      <point x="165" y="-106" type="curve"/>
      <point x="187" y="-107"/>
      <point x="199" y="-120"/>
      <point x="199" y="-142" type="curve" smooth="yes"/>
      <point x="287" y="-142" type="line" smooth="yes"/>
      <point x="287" y="-134" type="line" smooth="yes"/>
      <point x="287" y="-61"/>
      <point x="240" y="-14"/>
      <point x="165" y="-14" type="curve"/>
      <point x="94" y="-14"/>
      <point x="39" y="-54"/>
    </contour>
    <contour>
      <point x="545" y="-165" type="line" smooth="yes"/>
      <point x="910" y="-165" type="line" smooth="yes"/>
      <point x="910" y="-112" type="line" smooth="yes"/>
      <point x="844" y="-112" type="line" smooth="yes"/>
      <point x="844" y="-20" type="line"/>
      <point x="916" y="-20" type="line" smooth="yes"/>
      <point x="980" y="-20"/>
      <point x="999" y="-50"/>
      <point x="999" y="-100" type="curve" smooth="yes"/>
      <point x="999" y="-174" type="line" smooth="yes"/>
      <point x="999" y="-226"/>
      <point x="973" y="-258"/>
      <point x="910" y="-258" type="curve" smooth="yes"/>
      <point x="545" y="-258" type="line"/>
    </contour>
    <contour>
      <point x="725" y="-153" type="line"/>
      <point x="725" y="595" type="line"/>
      <point x="847" y="595" type="line"/>
      <point x="847" y="-153" type="line"/>
    </contour>
    <contour>
      <point x="379" y="0" type="line"/>
      <point x="379" y="122" type="line"/>
      <point x="727" y="122" type="line"/>
      <point x="727" y="0" type="line"/>
    </contour>
    <contour>
      <point x="336" y="0" type="line"/>
      <point x="336" y="122" type="line"/>
      <point x="494" y="122" type="line" smooth="yes"/>
      <point x="552" y="122"/>
      <point x="549" y="126"/>
      <point x="549" y="145" type="curve" smooth="yes"/>
      <point x="549" y="211" type="line" smooth="yes"/>
      <point x="549" y="232"/>
      <point x="553" y="230"/>
      <point x="518" y="231" type="curve" smooth="yes"/>
      <point x="518" y="354" type="line"/>
      <point x="588" y="354"/>
      <point x="672" y="322"/>
      <point x="672" y="229" type="curve" smooth="yes"/>
      <point x="672" y="111" type="line" smooth="yes"/>
      <point x="672" y="43"/>
      <point x="611" y="0"/>
      <point x="517" y="0" type="curve" smooth="yes"/>
    </contour>
    <contour>
      <point x="342" y="176" type="line"/>
      <point x="464" y="176" type="line"/>
      <point x="464" y="589" type="line"/>
      <point x="342" y="589" type="line"/>
    </contour>
    <contour>
      <point x="100" y="0" type="line"/>
      <point x="222" y="0" type="line"/>
      <point x="222" y="591" type="line"/>
      <point x="100" y="591" type="line"/>
    </contour>
    <contour>
      <point x="100" y="595" type="line"/>
      <point x="101" y="473" type="line"/>
      <point x="572" y="473" type="line"/>
      <point x="572" y="595" type="line"/>
    </contour>
  </outline>
</glyph>
<glyph name="tml_NyUu" format="1">
  <advance width="1400"/>
  <outline>
    <contour>
      <point x="1155" y="0" type="line"/>
      <point x="1277" y="0" type="line"/>
      <point x="1277" y="593" type="line"/>
      <point x="1155" y="593" type="line"/>
    </contour>
    <contour>
      <point x="1104" y="473" type="line"/>
      <point x="1361" y="473" type="line"/>
      <point x="1361" y="595" type="line"/>
      <point x="1104" y="595" type="line"/>
    </contour>
    <contour>
      <point x="871" y="473" type="line"/>
      <point x="1050" y="473" type="line"/>
      <point x="1050" y="595" type="line"/>
      <point x="871" y="595" type="line"/>
    </contour>
    <contour>
      <point x="448" y="-163" type="line"/>
      <point x="448" y="-257" type="line"/>
      <point x="644" y="-257" type="line" smooth="yes"/>
      <point x="797" y="-257"/>
      <point x="817" y="-146"/>
      <point x="817" y="-80" type="curve" smooth="yes"/>
      <point x="817" y="157" type="line"/>
      <point x="817" y="299"/>
      <point x="733" y="323"/>
      <point x="663" y="323" type="curve"/>
      <point x="663" y="201" type="line" smooth="yes"/>
      <point x="690" y="201"/>
      <point x="696" y="200"/>
      <point x="696" y="154" type="curve"/>
      <point x="695" y="-80" type="line" smooth="yes"/>
      <point x="695" y="-110"/>
      <point x="692" y="-163"/>
      <point x="643" y="-163" type="curve" smooth="yes"/>
    </contour>
    <contour>
      <point x="39" y="-125" type="curve" smooth="yes"/>
      <point x="39" y="-158" type="line" smooth="yes"/>
      <point x="40" y="-253"/>
      <point x="156" y="-257"/>
      <point x="189" y="-257" type="curve" smooth="yes"/>
      <point x="395" y="-257" type="line"/>
      <point x="395" y="-163" type="line"/>
      <point x="189" y="-163" type="line" smooth="yes"/>
      <point x="151" y="-163"/>
      <point x="150" y="-120"/>
      <point x="190" y="-120" type="curve" smooth="yes"/>
      <point x="993" y="-120" type="line"/>
      <point x="993" y="583" type="line" smooth="yes"/>
      <point x="871" y="583" type="line" smooth="yes"/>
      <point x="871" y="-27" type="line"/>
      <point x="190" y="-27" type="line" smooth="yes"/>
      <point x="102" y="-27"/>
      <point x="39" y="-57"/>
    </contour>
    <component base="tml_E"/>
  </outline>
</glyph>
<glyph name="tml_PU" format="1">
  <outline>
    <contour>
      <point x="39" y="106" type="line"/>
      <point x="39" y="597" type="line"/>
      <point x="161" y="597" type="line"/>
      <point x="161" y="106" type="line"/>
    </contour>
    <contour>
      <point x="302" y="0" type="line"/>
      <point x="389" y="0" type="line"/>
      <point x="389" y="-258" type="line"/>
      <point x="511" y="-258" type="line"/>
      <point x="511" y="596" type="line"/>
      <point x="389" y="596" type="line"/>
      <point x="389" y="122" type="line"/>
      <point x="302" y="122" type="line"/>
    </contour>
    <contour>
      <point x="39" y="0" type="line"/>
      <point x="39" y="122" type="line"/>
      <point x="248" y="122" type="line"/>
      <point x="248" y="0" type="line"/>
    </contour>
  </outline>
</glyph>
<glyph name="tml_RrAa.alt" format="1">
  <outline>
    <contour>
      <point x="709" y="-255" type="line"/>
      <point x="709" y="596" type="line"/>
      <point x="833" y="596" type="line"/>
      <point x="833" y="-255" type="line"/>
    </contour>
    <component base="tml_Va" xOffset="-1"/>
  </outline>
</glyph>
<glyph name="tml_TUu" format="1">
  <advance width="792"/>
  <outline>
    <contour>
      <point x="39" y="6" type="curve" smooth="yes"/>
      <point x="39" y="492" type="line" smooth="yes"/>
      <point x="39" y="743"/>
      <point x="138" y="816"/>
      <point x="332" y="816" type="curve" smooth="yes"/>
      <point x="477" y="816" type="line" smooth="yes"/>
      <point x="634" y="816"/>
      <point x="754" y="793"/>
      <point x="754" y="660" type="curve"/>
      <point x="754" y="650" type="line" smooth="yes"/>
      <point x="754" y="546"/>
      <point x="665" y="495"/>
      <point x="610" y="495" type="curve" smooth="yes"/>
      <point x="582" y="495" type="line" smooth="yes"/>
      <point x="513" y="495"/>
      <point x="441" y="565"/>
      <point x="441" y="650" type="curve" smooth="yes"/>
      <point x="563" y="650" type="line" smooth="yes"/>
      <point x="563" y="630"/>
      <point x="576" y="617"/>
      <point x="598" y="617" type="curve"/>
      <point x="621" y="617"/>
      <point x="632" y="631"/>
      <point x="632" y="649" type="curve" smooth="yes"/>
      <point x="632" y="687"/>
      <point x="614" y="693"/>
      <point x="473" y="693" type="curve" smooth="yes"/>
      <point x="333" y="693" type="line" smooth="yes"/>
      <point x="159" y="693"/>
      <point x="161" y="566"/>
      <point x="161" y="487" type="curve"/>
      <point x="161" y="5" type="line"/>
      <point x="161" y="-59"/>
      <point x="185" y="-78"/>
      <point x="249" y="-78" type="curve" smooth="yes"/>
      <point x="331" y="-78" type="line" smooth="yes"/>
      <point x="331" y="-200" type="line" smooth="yes"/>
      <point x="233" y="-200" type="line"/>
      <point x="124" y="-200"/>
      <point x="39" y="-133"/>
    </contour>
    <contour>
      <point x="385" y="-78" type="line" smooth="yes"/>
      <point x="466" y="-78" type="line" smooth="yes"/>
      <point x="511" y="-78"/>
      <point x="549" y="-51"/>
      <point x="549" y="1" type="curve" smooth="yes"/>
      <point x="549" y="68" type="line" smooth="yes"/>
      <point x="549" y="97"/>
      <point x="538" y="111"/>
      <point x="509" y="111" type="curve" smooth="yes"/>
      <point x="407" y="111" type="line" smooth="yes"/>
      <point x="407" y="233" type="line"/>
      <point x="508" y="233" type="line" smooth="yes"/>
      <point x="615" y="233"/>
      <point x="671" y="156"/>
      <point x="671" y="68" type="curve" smooth="yes"/>
      <point x="671" y="0" type="line" smooth="yes"/>
      <point x="671" y="-105"/>
      <point x="594" y="-200"/>
      <point x="469" y="-200" type="curve" smooth="yes"/>
      <point x="385" y="-200" type="line"/>
    </contour>
    <contour>
      <point x="291" y="0" type="line"/>
      <point x="291" y="592" type="line"/>
      <point x="413" y="593" type="line"/>
      <point x="413" y="0" type="line"/>
    </contour>
  </outline>
</glyph>
